<svg id="Layer_1" data-name="Layer 1" xmlns="http://www.w3.org/2000/svg" viewBox="0 0 260.594 370.985"><defs><style>.cls-1{fill:#060607;}.cls-2{fill:#e93f42;}.cls-3{fill:#f3dd74;}.cls-4{fill:#e0a318;}.cls-5{fill:#6aad41;}.cls-6{fill:#fcfdfc;}</style></defs><path class="cls-1" d="M181.674,174.719c.963-8.945,2.643-17.77,2.739-26.872.056-5.234,3.684-9.876,7.709-13.614a25.075,25.075,0,0,0-.536,2.453c-.076.629-1.014,1.234-.106,1.915-.1-.155-.173-.387-.317-.452-1.064-.482-1.237.555-1.565,1.067-2.731,4.262-4.667,8.8-4.329,14.006.052.795-.059,1.939,1.057,2.121.9.146,1.07-.874,1.479-1.45,1.656-2.334,3.184-4.77,4.975-7,1.491-1.852,2.383-3.549,1.56-6.076a6.726,6.726,0,0,1,.944-5.954c.442,2.517-.3,4.84,1.056,6.844.332-.159.615-.208.76-.377,7.4-8.615,15.116-16.9,24.155-23.842,1.293-.992,1.036-2.077.972-3.3-.178-3.41-.26-6.813,1.406-10.613,0,3.578-.008,6.484,0,9.391.007,1.92.657,2.41,2.436,1.3a15.991,15.991,0,0,1,9.915-2.719c1.686.14,2.14-.553,2.219-2.095a12.565,12.565,0,0,1,2.718-7.425c-.211,2.771-1.209,5.329-1.312,8.084-.063,1.669.8,2.112,2.111,2.474,1.5.416,1.528-.627,1.888-1.572.2-.536.115-1.526,1.134-1.487.684,1.451-.891,3.615,1.692,4.422a79.032,79.032,0,0,1,14.92,6.738c1.626.91,2.061.2,2.573-1.237a11.518,11.518,0,0,1,3.021-5.156c.765,1.58-.205,2.244-.6,3.106a16.106,16.106,0,0,0-1.218,3.112c-.652,2.976,2.169,4.694,5.26,3.082-.176,1.981.441,3.728,2.368,4.159,2.013.45,1.984-1.835,2.728-2.9A51.384,51.384,0,0,1,285.66,113.97c1.791-1.43,3.616-2.818,5.726-4.459a54.29,54.29,0,0,1-15.223-8c-1.5-1.115-2.784-3.048-4.767-.382-.79,1.062-1.3-.127-2.038-.861a13.04,13.04,0,0,0-5.245-3.377c-1.731-.5-2.247,1.926-3.462,2.872-.452.353-.9.326-1.546-.171,1.3-1.643,2.489-3.39,3.932-4.893,1.193-1.243,1.075-1.881-.365-2.737a68.012,68.012,0,0,1-13.356-10.742c-2.258-2.272-3.481-1.837-5.369.544a72.265,72.265,0,0,0-9.194,15.077c.918-6.046,4.212-10.933,7.421-15.976-11.927,4.854-22.821,10.935-29.236,22.8-.5.932-.543,2.115-2.006,2.411-3.306.67-4.455,3.308-5.008,6.209-.459,2.411-.627,4.877-.993,7.887-.749-2.062-.276-3.8-1.257-5.249-1.853.483-2.733,2.069-3.92,3.288-3.073,3.156-4.411,7.4-6.878,10.936.9-6.093,4.315-10.77,8.594-14.88,1.627-1.563,3.324-2.955,3.856-5.286a2.619,2.619,0,0,1,.727-1.29c8.384-7.579,13.805-18.213,24.542-23.412,4.581-2.218,9.095-4.542,13.835-6.42,1.891-.75,3.152-.385,4.614,1.025,5.471,5.279,11.141,10.338,18.019,13.8-.4,1.184-1.83,1.433-1.886,3,2.587.059,3.909,4.931,7.581,1.706.605-.532,1.477.655,2.141,1.169,6.113,4.731,12.531,8.854,21.05,10.186-2.268,1.506-3.994,2.606-5.673,3.776a50.8,50.8,0,0,0-11.74,10.885c-2.212,2.925-4.207,5.435-1.9,9.794,2.365,4.472.793,6.426-4.14,8.086-6.021,2.025-12.094,3.941-17.749,7.109a122.943,122.943,0,0,1,21.3,2.49,63.222,63.222,0,0,1,21.551,8.988c10.3,6.961,14.305,17.432,16.174,29.082a112.252,112.252,0,0,1,.828,24.241c-.138,2.439-.873,4.54-3.017,5.945.445-3.435,2.369-6.662.685-10.374a39.03,39.03,0,0,0-9.443-12.781c-13.03-11.908-28.8-17.8-45.947-20.189-5.521-.77-11.335-.878-16.564,2.089l-1.079.3c-.365.117-1.258.454-1.742.621l.034-.018a9.15,9.15,0,0,0-1.579.68l.058-.022c-1.5-.664-2.629.389-3.789.955A64.8,64.8,0,0,0,211.2,197.25c-4.089,4.827-8.055,9.69-8.911,16.359-.42,3.273-2.562,5.835-4.676,8.291-.157.15-.463.417-.452.432.284.358.573.253.844-.039,4.936-.772,7.388-3.6,8.793-9.567.533-2.262-.135-4.877,1.469-6.781,5.873-6.979,12.585-13.032,20.779-17.16,1.906-.96,3.322-1.937,4-3.925l-.053.221c.194-.147.395-.287.582-.442,7.879-6.512,12.031-6.054,16.935,1.872.492.794.981,1.589,1.669,2.7.344-2.684-1.627-4.123-2.034-6.111a60.852,60.852,0,0,1,12.241.714c14.859,2.741,28.233,8.376,38.756,19.652l-2.765.735a15.033,15.033,0,0,0-5.651,1.847c2.258.661,3.947-.266,5.706-.719l3.7-.031.783.143c3.407,1.631,3.26,4.429,2.06,7.233a73.57,73.57,0,0,1-3.856,6.952,4.047,4.047,0,0,0,.251,5c.693.828,2.545-.926,3.919-1.4,2.471-.847,3.564-3.731,6.3-4.11-1.523,4.183-5.44,5.572-8.928,7.21a5.438,5.438,0,0,0-3.443,4.215A52.389,52.389,0,0,1,292.532,247c-1.091,1.715-.78,2.515.833,3.451,3.779,2.193,7.649,4.144,12.075,4.493,2.1.165,2.561.791,1.588,2.721-2,3.962-3.848,8-5.828,12.146,1.686.681,3.379.041,5.035.121a4.315,4.315,0,0,1-4.038,2.128,84.715,84.715,0,0,1-27.2-3.739,13.7,13.7,0,0,0-13.411,2.946c12.429.653,24.687,3.481,37.1,5.122,6.414.848,12.478,1.784,17.155-4.366,3.068-4.035,6.578-7.732,9.06-12.206.717-1.294,1.988-2.808.3-3.908-1.6-1.048-2.221.969-3.1,1.868-4.494,4.619-8.936,9.294-15.09,11.784-.231-1.026.672-1.182,1.229-1.6,4.39-3.306,8.176-7.312,12.371-10.809,3.729-3.108,2.153-7.017,2.776-10.591.184-1.06-1.221-1.463-1.921-2.125-4.312-4.077-7.944-8.584-9.567-14.441-2.088-7.532.792-11.358,8.552-11.484,1.214-.02,2.765.428,3.461-1.354.792-2.026-1.155-1.34-1.775-1.964-.686-.69-.461-1.645-.426-2.483.6-13.882,1.41-27.747,3.088-41.55.388-3.192.642-6.4.843-9.613.318-5.094.921-6.164,5.824-6.693,2.6-.281,3.117-1.4,3.109-3.521a11.959,11.959,0,0,1,.162-3.352c1.162-3.932.406-6.6-4.092-7.463-1.686-.324-2.225-1.778-2.142-3.471.282-5.722.553-11.444.763-17.169.117-3.179,3.012-2.895,4.658-3.164,3.02-.493,3.886-1.724,3.728-4.628-.169-3.1.295-6.226.266-9.338-.036-3.761,2.618-3.4,4.913-3.242,2.338.159,5.405-.317,5.252,3.6-.131,3.361-.162,6.739-.551,10.073-.259,2.216.216,3.5,2.506,4.013,3.013.678,3.934,2.474,4.286,5.725.6,5.52-1.8,10.748-.831,16.187.34,1.907-1.424,2.4-2.449,2.528-4.67.564-5.487,3.419-5.635,7.52-.134,3.706-.159,6.4,4.564,6.851,3.842.365,5.333,2.731,4.744,6.817-1.066,7.4-1.606,14.865-2.537,22.282-.279,2.229-.372,3.624,2.43,4.268,4.227.971,6.6,4,6.587,8.391-.006,2.3.614,2.6,2.793,2.268,5.833-.885,9.369,2.184,9.443,8.106.026,2.131.056,3.676,2.83,3.3a2.89,2.89,0,0,1,2.111.544c3.174,2.955,6.018,6.269,11.008,6.212,1.11-.013,1.39,1.9,1.363,3.188a58.188,58.188,0,0,1-3.748,20.465c-1.6,4.04-4.442,5.956-8.934,5.933a53.367,53.367,0,0,1-14-2.018,4.155,4.155,0,0,0-4.346.857,22.446,22.446,0,0,1-12.438,5.468c-1.627.141-3.2.536-3.693,2.522a2.454,2.454,0,0,1-1,1.531c-4.554,2.131-3.5,6.27-4.1,10.085-1.081,6.835-.721,13.828-2.825,20.565-2.115,6.774-6.49,10.706-13.184,12.316-10.261,2.467-20.794,2.2-31.222,2.867-3.338.212-4.485.866-4.695,4.554a27.354,27.354,0,0,1-8.788,17.9c-.445-1.432,1.595-3.542,2.141-4.569,2.2-4.135,4.526-8.23,5.227-12.945.528-3.552-.193-4.164-3.713-3.627-3.762.575-7.528,1.131-11.292,1.7a65.867,65.867,0,0,1,19.457-4.431c10.527-.922,21.165-.67,31.575-2.86,6-1.261,10.372-4.329,12.478-10.411,2.267-6.547,2.6-13.341,3.1-20.12.517-6.938.425-6.913-5.969-8.291-1.981-.427-3.237-.308-4.405,1.869a50.005,50.005,0,0,1-11.96,14.581c-.469.4-1.3,1.1-1.207,1.312,1.193,2.612-1.11,1.677-1.94,1.8a30.022,30.022,0,0,1-4.474.107c-9.509.014-18.7-2.338-28.008-3.8-10.686-1.673-21.389-3.407-31.659,1.915l-.019.011c.876-.925,2.333-1.25,3.136-3.106-2.446.222-4.489.363-6.521.6-5.1.6-5.566,1.2-4.34,6.367,1.457,6.14,2.97,12.27,4.632,18.357,2.13,7.8-1.878,14.036-4.96,20.533a5.7,5.7,0,0,1,.086-2.19c1.632-3.354.018-4.492-3.062-4.866-2.338-.284-4.653-.994-6.986-1.028-7.439-.109-14.7.842-21.595,4.272a114.258,114.258,0,0,0,18.924,16.88,92.983,92.983,0,0,1-22.947-7.842c-4.1-2.031-4.8-1.743-5.621,2.763a16.031,16.031,0,0,0-.153,2.606c-.165,10.735,5.525,18.24,13.486,24.517,1.04.82,2.084.573,3.189.447a65.412,65.412,0,0,0,20.075-5.559c.752-.346,1.545-1.369,2.794-.275a78.533,78.533,0,0,1-10.209,8.124c-1.069.748-3.02,1.046-2.941,2.448.077,1.381,1.956,1.692,3.165,2.241,11.022,5.009,22.775,6.027,34.657,6.146,2.26.023,5.493,1.206,6.568-.776.895-1.649-1.93-3.672-3.039-5.565-2.592-4.425-5.279-8.787-6.563-14.911,5.876,6.516,10.636,12.583,16.314,17.829,2.884,2.664,5.7,2.732,8.777.771,7.523-4.793,10.95-11.987,11.769-20.6.441-4.638.359-4.606-4.127-3.67a47.019,47.019,0,0,1-22.557-.939c4.061-1.063,7.079-1.923,10.131-2.633a30.046,30.046,0,0,0,9.163-3.675c-2.783-2.659-6.227-3.855-9.313-5.642-1.7-.982-2.552-.407-3.708.924-2.61,3-5.4,5.857-8.212,8.679-9.989,10.033-18.631,9-29.9,3.147A23.066,23.066,0,0,1,233,338c-1.914-1.636-2.549-3.4-.812-5.789a46.007,46.007,0,0,0,4.763-9.292c.389-.915.287-2.388,1.886-2.428.077,4.892-3.194,8.458-5.086,12.553-.642,1.391-1.1,2.23.106,3.559,5.859,6.472,23.149,9.25,30.062,2.207,4.667-4.754,8.847-9.986,13.868-14.393-.138,1.594,1.068,1.929,2.175,2.515,2.838,1.5,5.618,3.118,8.394,4.734,1.956,1.138,3.223,2.8,3,5.153-.252,2.624.889,3.06,2.965,2.07,2.369-1.129,3.254-.153,3.673,2.143,1.055,5.778,1.429,11.539.074,17.318-.218.929-.116,2.07-1.48,2.245-.447-3.821,1.541-7.53.466-11.368-.723.271-.46,1.011-.631,1.552-2.677,8.434-6.981,15.359-16.222,17.865-2.917.791-1.605,3.308-1.534,5.01.081,1.934,1.933,1.168,2.956.938,6.307-1.417,10.341-5.577,13.187-11.157.508-1,.226-2.546,1.807-2.881-.175,6.167-3.923,10.2-8.723,13.037-2.773,1.639-2.482,2.963-1.457,5.254,2.455,5.492,5.863,10.4,9.109,15.41,1.228,1.9,3.052,1.948,4.9,2.085,8.079.6,15.82-1.249,23.506-3.373C334,390.19,343.9,386.938,354.3,385.408c16.647-2.45,34.017,6.244,41.42,21.259,1.287,2.611,2.1,5.431,3.285,8.111,2.1,4.745,1.052,8.708-3.6,12.256-6.069,4.634-13.24,6.613-20.488,8.041-12.244,2.413-24.521,1.773-36.71-.776a2.04,2.04,0,0,1-.338-.154c-.7-.289.035-.5.039-.744,1.295-.834,2.6-.312,3.939-.085,14.63,2.481,29.129,2.4,43.265-2.69,4.7-1.69,9.17-3.941,12.338-8.06a5.158,5.158,0,0,0-.235-6.6c-1.236-1.486-2.346,1-3.578,1.579-.673.318-1.3.737-1.953,1.1-11.294,6.235-23.673,8.172-36.289,8.883a115.5,115.5,0,0,1-37.612-4.4c-5.582-1.557-11.462-3.122-16.109-7.108,1.166-.381,2.166.129,3.213.54,7.231,2.846,14.336,5.82,22.152,7.158a159.564,159.564,0,0,0,33.81,1.834c2.9-.122,2.744-1.226,1.368-3.125-6.311-8.706-14.393-14.644-25.217-16.459a158.176,158.176,0,0,0-18.584-1.555c-9.671-.469-19.435.52-29-1.726q-.431-.017-.859-.036l.28.7a13.575,13.575,0,0,0,7,8.652c1.923.994,4.187,1.658,5.3,3.827-2.107.446-3.522-2.541-6-1.126,4.459,5.617,10.963,7.645,17.134,10.067,6.834,2.682,13.834,4.94,20.761,7.383-1.331.824-2.692.325-3.976-.041a199.061,199.061,0,0,1-25.209-9.113c-5.236-2.288-9.5-5.561-12-10.694-5.64-11.545-13.946-21.1-22.234-30.72a5.919,5.919,0,0,0-6.143-2.272,38.86,38.86,0,0,1-13.768.029c-2.432-.431-2.794.581-2.57,2.529.847,7.37,1.852,14.726,2.478,22.115.416,4.921,2.006,9.475,3.71,13.981,1.131,2.99.415,4.831-1.975,6.712C239.5,434.012,226.026,440,211.589,443.818c-16.541,4.377-33.31,6.453-50.294,2.647-6.978-1.564-13.635-4.046-18.667-9.5-3.622-3.929-4.112-7.67-1.7-11.393.984.618.611,1.559.466,2.356-.673,3.709.844,6.557,3.432,8.993a24.333,24.333,0,0,0,7.145,4.645c13.191,5.664,26.935,5.985,40.908,4.3a126.233,126.233,0,0,0,41.273-12.168,74.681,74.681,0,0,0,17.13-11.071c1.082-.974,1.6-2.14.7-3.24s-1.741.108-2.478.654A100.134,100.134,0,0,1,203,438.749c-15.163,2.114-30.312,2.531-44.838-3.566-5.014-2.1-9.877-4.6-12.74-9.641,1.955.537,2.788-.48,3.53-2.169a49.82,49.82,0,0,1,13.905-18.69c.984-.814,2-1.584,3.271-2.582a3.169,3.169,0,0,0-3.282.069,43.113,43.113,0,0,0-16.75,14.459c-1.7,2.372-2.678,4.619-1.166,7.385-1.172.642-2.073-.748-3.2-.427-.833-2.384.751-4.1,1.839-5.8,10.114-15.828,24.425-22.708,43.2-20.325,11.882,1.508,23.346,4.829,34.959,7.519a64.545,64.545,0,0,0,15.151,1.964c2.06-.017,2.965-.27,1.943-2.643-3.912-9.086-7.138-18.435-10.144-27.854a5.532,5.532,0,0,0-2.754-3.192c-2.828-1.789-7.2-2.023-7.148-6.952.011-1.085-1.519-.708-2.22-.533-5.436,1.35-8.916-1.824-12.379-5.151-10.787-10.364-13.457-23.014-7.586-36.053,2.019-4.483,2.019-4.483,6.483-2.383-.143-6.87,4.471-8.977,10.007-10.486,8.467-2.308,16.93-2.9,25.382-.392,2.191.651,2.48-.073,2.944-1.771a24.441,24.441,0,0,0,.167-13.944c-1.956-6.517-4.482-12.991-4.011-20.007.1-1.475-.886-1.215-1.667-1.317-3.945-.512-7.924-.909-11.7-2.231-1.487-.521-1.914.095-2.456,1.248-1.512,3.215-8.12,5.444-11.388,3.637-9.875-5.46-19.023-11.938-25.991-20.948-5.565-7.2-8.542-15.013-3.173-23.769.726-1.184.245-2.081-.148-3.122-6.374-16.9-6.418-33.571,2.092-49.8.913-1.742-.872-2.562-.39-3.889,1.754.563,2.8-.28,3.656-1.719a29.627,29.627,0,0,1,3.078-4.633c6.816-7.645,14.79-13.674,24.532-17.164,1-.359,2.068-.546,2.438-1.967,1.186-4.56,3.339-6.359,7.665-6.9,1.687-.213,3.358.2,3.714,1.75.814,3.549,3.175,3.464,5.911,3.23,1.731-.148,3.657-.466,5.2.095,7.145,2.587,13.239-.222,19.5-3.093,4.856-2.228,9.943-3.952,15.221-6.014a27.344,27.344,0,0,0-7.281-4.811c-9.771-4.812-20.136-7.846-30.671-10.433a5.78,5.78,0,0,0-4.884.754c-18.1,11.282-31.915,26.722-43.455,44.438C185.918,171.146,185.22,174.43,181.674,174.719ZM240.117,413.9l-2.419.514a147.928,147.928,0,0,1-21.568,1.436c-16.733-.478-26.872,9.341-35.819,22.471,20.61.766,39.411-3.085,56.832-12.979-2.224-.39-4.678-.063-5.436-2.625-.775-2.623,1.453-4.006,3.17-5.4a20.885,20.885,0,0,1,2.892-1.676l2.353-.764c1.778.146,3.887-.734,5.141,1.181,1.342,2.047-.816,3.316-1.761,4.953,2.523.43,3.573-1.483,5.159-2.274,3.552-1.771,1.922-4.293.927-6.586-1.243-2.861-2.833-.344-4.195-.02C243.6,412.559,241.872,413.3,240.117,413.9Zm-20.2-84.486-.478-.349-13.709-12.194c-.216,2.833-2.662,5.547.352,7.173,4.186,2.256,8.345,4.6,13.291,4.962m.192,79.49c-.363.576-.831.448-1.186.069-3.905-4.17-9.153-5.208-14.414-6.242-2.919-.573-5.741-1.9-9.548-1.267,6.7,3.257,12.234,6.882,16.244,12.448a2.045,2.045,0,0,0,1.85,1.03c3.4-.193,6.8-.347,10.1-.511,0-2.835-3.6-2.971-3.156-5.632a4.685,4.685,0,0,1,3.412,2.566c2.307,3.878,5.487,2.941,9.247,2.2-1.52-1.454-2.7-2.537-3.827-3.669-2.263-2.269-5.037-2.875-8.134-2.766C218.025,406.8,219.517,407.829,219.566,408.493ZM342.973,249.008l.685.794a1.373,1.373,0,0,0-.2.312.433.433,0,0,0,.007.339c.7.848,1.6.348,2.4.27a24.892,24.892,0,0,0,22-21.536c.278-2.137.2-3.658-2.445-3.694a32.852,32.852,0,0,0,6.426-16.064c.552-4.79-1.372-7.414-5.34-7.836-5.064-.539-6.411.7-7.2,6.134-.521,3.6.856,7.194-.26,10.81a9,9,0,0,0,.449,6.914c1.08,2.12,3.413,1.393,5.29,2.19-3.917,1.888-6.97.224-7.543-3.956a21.846,21.846,0,0,1,.393-6.679c.616-3.583-1.05-4.907-4.5-3.976a10.633,10.633,0,0,1-2.6.031c1.71-4.043,3.118-7.905,2.93-12.107-.108-2.4-1.112-4.415-3.6-5.115-2.4-.674-4.184.569-5.313,2.532-3.636,6.322-7.157,12.71-10.75,19.122,4.888,1.4,5.887,3.58,3.923,8.289a13.041,13.041,0,0,1-9.349,7.864c-5.349,1.369-5.61,2-2.744,7.012a20.894,20.894,0,0,0,1.87,2.781c2.872,3.541,3.35,3.488,5.476-.39.418-.763.605-1.753,1.686-2.168.321,1.934-.953,3.172-1.443,4.664-.235.713-1.3,1.475-.216,2.292a2.171,2.171,0,0,0,2.421.4c.609-.3,1.024-1.22,2.039-.607-.688,1.129-1.232,2.1.886,2.436C340.136,250.354,341.441,249.378,342.973,249.008Zm-30.23-43.36a61.911,61.911,0,0,0-4.768-31.043,29.562,29.562,0,0,0-8.787-11.447c-8.834-7.117-19.16-10.506-30.153-11.921-13.954-1.795-27.725-1.012-40.3,6.079-15.077,8.5-24.253,21.838-29.457,38.053a4.879,4.879,0,0,1-3.984,3.855c-7.572,2.018-11.277,11.782-7.218,18.528,1.253,2.081,2.979,3.914,5.562,3.894a6.318,6.318,0,0,0,5.751-4.151,19.405,19.405,0,0,0,1.966-5.992,18.065,18.065,0,0,1,3.966-9.488c10.042-13.416,21.993-24.139,39.109-27.4,12.523-2.387,24.269,1.063,35.692,5.554C293.086,185.262,304.353,192.833,312.743,205.648ZM241.19,150.29a1.666,1.666,0,0,0-1.656-.812c-7.641-.458-14.957,1.236-22.2,3.377-26.072,7.706-42.828,34.372-38.628,61.191.992,6.336,3.081,12.293,5.144,18.294.555,1.614.355,2.039-.233,1.876-2.771-.766-2.453,1.654-2.812,2.851-1.707,5.7-.064,10.888,3.163,15.57,6.588,9.556,15.859,16.055,25.571,22.029,1.832,1.127,2.359.169,2.895-1.328,1.889-5.274,3.828-10.53,5.743-15.8,1.671-4.592,1.621-4.489-2.874-6.516-10.621-4.79-17.838-12.224-18.286-24.572-.069-1.905-1.061-2.112-2.489-2.489-6.446-1.7-9.388-5.468-9.581-12.044-.194-6.622,3.216-12.3,9.023-13.956,2.8-.8,3.749-2.274,4.593-4.836,6.239-18.948,17.794-33.177,36.775-40.655C237.24,151.725,239.431,151.689,241.19,150.29ZM323.808,203.4c-.058.619-.132,1.236-.171,1.855-.292,4.645-.289,4.6,4.376,4.751a11.9,11.9,0,0,1,4.379.725c2.466,1.1,3.486.087,4.548-2.017,1.959-3.884,4.081-7.7,6.379-11.391,1.553-2.5,3.938-3.859,7.019-2.988,3.033.858,4.356,3.131,4.493,6.129a18.406,18.406,0,0,1-.548,6.286c-.262.867-1.591,2.219-.068,2.911,1.151.522,1.7-1.018,2.448-1.707a6.571,6.571,0,0,0,1.079-1.5c4.1-6.856,2.034-14.574-4.484-15.746-2.981-.536-3.156-1.8-2.861-4.251.97-8.035,1.708-16.1,2.653-24.136.27-2.291-.128-3.942-2.556-4.615a43.709,43.709,0,0,0-20.68-.858,2.475,2.475,0,0,0-2.137,2.209c-.559,2.641-1.586,5.2-1.229,7.985.8,6.227-1.566,12.161-1.622,18.382C324.773,191.384,323.653,197.368,323.808,203.4Zm24.7,204.655A41.036,41.036,0,0,1,364.217,422.8c1.143,1.911,2.451,2.3,4.135,1.918,5.407-1.233,10.864-2.268,16.057-4.351a50.222,50.222,0,0,0,11.044-6.1c1.1-.806,3.423-2.153,1.368-3.6a8.51,8.51,0,0,1-2.541-3.347c-3.593-6.408-8.227-11.791-14.64-15.555a7.256,7.256,0,0,0-5.992-.89C363.358,393.623,355.691,400.089,348.511,408.054Zm-182.863-.8c-2.371-.9-4.609.827-6.681,3.275a67.874,67.874,0,0,0-8.664,13.437c-1.312,2.6-1.054,4.093,1.435,5.769,7.534,5.075,15.984,7.228,24.8,8.461,1.729.242,2.426-.762,3.2-1.948a55.658,55.658,0,0,1,12.66-14.1c2.029-1.542,1.779-2.388.155-3.934C185.3,411.307,176.594,407.949,165.648,407.254Zm61.109-186.463c3.214-2.067,4.747-.444,5.978,1.609,2.049,3.418,2.143,9.139-.247,10.424-2.333,1.254-1.248,1.943-.275,3.029,4.748,5.3,16.959,6.879,22.607,3,1.224-.84.97-1.886.876-2.97-.375-4.343-.51-8.727-1.222-13.015-1.541-9.281-4.032-18.21-10.863-25.278-1.538-1.591-2.727-1.947-4.708-.624C230.564,202.541,227.745,210.82,226.757,220.791ZM342.7,392.839c-2.1,3.175-4.972,5.722-6.956,8.954-.373.608-1.836,1.639-.047,2.2,3.549,1.1,7.156,2.029,10.759,2.948,1.043.266,1.474-.762,2.031-1.381,6.851-7.613,14.76-13.6,25.947-16.34-9.238-2.642-17.372-4.324-25.5.132-.959.526-2.534,1.746-2.956,1-1.761-3.139-3.839-.694-5.53-.412-3.164.527-6.2,1.791-9.324,2.6-5.407,1.393-7.8,5.52-10.333,10.714,3.338,0,6.017-.434,8.476.115,2.789.623,3.933-.5,5.295-2.583C336.651,397.594,339.036,394.577,342.7,392.839Zm-112-273.685c-.266-5.585-.31-5.613-4.764-2.93-.743.447-1.453.951-2.156,1.459-8.729,6.308-16.215,13.953-23.2,22.071-6.4,7.442-12.977,14.857-15.659,24.669-.453,1.658-2.6,4.073-.805,4.872,1.822.809,2.768-2.272,3.811-3.833,10.8-16.164,23.532-30.45,40.043-41.009C230.236,123.009,231.682,121.61,230.706,119.154Zm-8.614,242.1c-2.452,6.844-2.414,7.211,3.786,10.238,13.276,6.48,27.3,7.927,41.8,5.887,1.874-.264,2.692-.873,2.9-2.979.353-3.64-.873-4.54-4.485-4.5C250.979,370.07,236.034,369.009,222.092,361.249ZM209.412,414.6c-4.375-6.115-10.276-9.373-16.274-12.627-9.433-5.116-18.187-3.379-26.692,2.113-.6.387-1.819.538-1.325,1.876,11.413.159,21.448,3.742,29.469,12.126.93.971,1.683,1.237,2.863.507A30.668,30.668,0,0,1,209.412,414.6ZM352.769,128.378l-.113,0a24.754,24.754,0,0,1,.045-4.469c.673-3.612-1.477-4.884-4.338-5.708a27.581,27.581,0,0,0-15.055.265c-1.681.45-2.527,1.229-2.587,3.04-.132,3.975-.328,7.953-.654,11.916-.2,2.5.633,3.094,2.967,2.3,3.95-1.349,8.03-1.339,12.164-1.064,2.5.165,5.085,3.524,6.925,1.339C353.462,134.4,352.632,130.981,352.769,128.378ZM260.481,232.236c-1.885,2.371-1.29,4.11.063,5.784,1.433,1.772,2.422-.459,3.7-.51,1.117-.044,2.18-1.067,3.3-1.593.726-.341,1.433-1.336,2.282-.625.792.661.105,1.63.016,2.461a5.649,5.649,0,0,0-.219,1.469c.281,1.552-2.664,2.7-.851,4.112,1.321,1.026,3.365.5,5.1.365a12.037,12.037,0,0,0,4.9-1.671c8.7-4.8,12.524-12.627,13.945-22.349a44.776,44.776,0,0,0-11.564,5.616c-5.282,3.275-10.388,6.84-15.725,10.02C261.553,237.617,260.907,237.146,260.481,232.236Zm15-94.461c.456-3.827-.515-6.332-3.066-8.174-1.773-1.281-3.493-2.656-5.358-3.789-9.588-5.828-19.346-11.3-30.793-12.514-1.483-.158-4.028-1.068-3.978,1.7.045,2.5-1.482,5.943,2.8,6.971C249.1,125.33,262.961,129.153,275.476,137.775ZM229.846,375.4c2.356,6.622,4.429,12.667,6.661,18.652,1.645,4.411,3.517,8.738,5.25,13.117.966,2.441,2.932,3.047,5.16,2.523,2.421-.57,1.26-2.637,1.161-4.062-.55-7.938-2.093-15.8-1.808-23.8.056-1.564-.477-2.806-2.128-2.985C239.475,378.331,235.065,376.7,229.846,375.4ZM370.209,222.805c-.353,7.045-1.837,13.578-6.115,19.285-1.275,1.7-.306,2.017,1.149,2.363a60.444,60.444,0,0,0,12.522,1.763c4.036.1,6.52-1.654,7.963-5.39,2.322-6.01,3.135-12.269,3.483-18.63.129-2.365-.953-3.281-3.347-3.342-2.586-.066-2.7,1.284-2.65,3.262.129,4.663-.394,9.22-3.146,13.2-1.117,1.618-2.568,2.747-4.7,2.413-2.261-.355-2.95-2.133-3.308-4.01C371.37,230.1,370.818,226.446,370.209,222.805ZM319.8,232.658h3.682c6.2.005,10.739-2.643,12.717-7.415,1.874-4.522.762-6.2-3.981-5.427a38.2,38.2,0,0,1-13.345.26c-3.37-.622-5.332,1.233-5.826,4.743-.744,5.284,5.473,16.735,10.255,19.038,1.371.661,1.889-.429,1.493-1.028C322.679,239.627,323.068,235.2,319.8,232.658ZM289.723,400.837c2.28.054,4.681-.309,5.833-2.027,1.139-1.7-1.184-2.942-2.006-4.369-2.9-5.034-6.588-9.632-8.592-15.147-.966-2.657-2.213-3.891-5.151-2.684a4.325,4.325,0,0,1-3.977-.4c-3.084-2.106-3.729.9-5,2.344-1.509,1.71.461,2.595,1.25,3.556,4.713,5.744,9.578,11.364,14.268,17.127A3.541,3.541,0,0,0,289.723,400.837Zm-16.662-135c5.725,2.408,11.243,3.2,16.742,3.982,1.8.256,6.783-7.651,5.957-9.233a2.129,2.129,0,0,0-.833-.726c-2.353-1.376-4.712-2.745-7.085-4.088a1.887,1.887,0,0,0-2.645.445C282,260.089,277.769,262.708,273.061,265.834ZM381.823,222.5c-.162-1.108-.307-2.724-.647-4.3-.842-3.892-3.485-5.889-6.852-5.284-1.107.2-4.266,5.716-3.554,7.081,2.162,4.148,1.5,8.784,2.709,13.065.374,1.327.6,2.8,2.252,3.093,1.835.321,2.682-1.1,3.445-2.373C381.162,230.48,381.57,226.769,381.823,222.5ZM213.547,275.144l.512.745c1.843-1.353,4.866.341,6.012-2.66,2.484-6.506,4.86-13.052,7.264-19.588.255-.692.483-1.825-.581-1.632-2.155.391-4.82-.152-5.868,2.839C218.506,261.637,216,268.381,213.547,275.144ZM225.2,250.185c-2.085-1.713-4.41-2.28-6.534-3.258-8.512-3.917-15.283-9.349-17.2-19.216-.252-1.3,1.148-3.89-1.33-3.725-2.779.186-1.317,2.932-1.584,4.588a4.414,4.414,0,0,0,.254,1.461c2.192,10.652,9.506,16.506,19.01,20.322A8.19,8.19,0,0,0,225.2,250.185Zm100.919-5.708a21.473,21.473,0,0,0-1.01,2.4c-1.153,4.25.178,7.737,3.614,9.585,4.175,2.246,9.879,1.691,12.519-1.168a3.262,3.262,0,0,0,1.147-2.258c-.051-.925-.979-.959-1.711-1.03C334.99,251.458,330.406,248.7,326.121,244.477ZM196.06,335.733c-2.244,9.581,5.163,23.016,14.226,27.279,1.121-3.989.752-7.186-3.184-9.862a23.555,23.555,0,0,1-7.632-9.549C198.373,341.3,197.437,338.928,196.06,335.733ZM344.077,146.711l.28,0c0-1.856-.111-3.721.025-5.567.238-3.243-2.219-2.638-4.011-2.882s-3.432-.273-3.489,2.383a64.753,64.753,0,0,1-.751,9.244c-.6,3.629.281,5.028,4.3,4.855,2.893-.125,3.665-.959,3.455-3.586A34.44,34.44,0,0,1,344.077,146.711Zm-4.759-38.768c-.3,8.994-.805,7.37,3.5,7.823,2.533.266,3.282-.712,3.317-3.01a58.483,58.483,0,0,1,.474-7.431c.432-3.013-.724-4.187-3.7-4.43-3.189-.261-3.4,1.561-3.4,3.879C339.507,106.137,339.347,107.5,339.318,107.943ZM228.242,354.589l-.282-.8c-4.327.981-8.657,1.944-12.978,2.948-3.623.842-2.08,3.934-2.6,6.115-.315,1.326.654,1.5,1.547,1.359,2.209-.359,5.446,1.305,6.027-2.507.355-2.324,1.657-3.394,3.562-4.306C225.165,356.608,226.673,355.535,228.242,354.589Zm95.331,40.319c-4.233.865-8.113,1.582-11.951,2.476-1.7.4-2.485,1.962-3.339,3.346-.736,1.192-.561,1.778.973,1.808,2.864.058,5.726.222,8.589.318a1.717,1.717,0,0,0,1.816-.959C320.842,399.641,322.141,397.445,323.573,394.908Zm-18.66-136.144c-6.306.265-8.283,4.406-10.2,8.616-.433.948-1.744,1.835-.683,2.924.823.846,2.157.457,3.218.278a3.653,3.653,0,0,0,2.58-1.953C301.49,265.478,303.1,262.3,304.913,258.764ZM265.461,356.9a2.267,2.267,0,0,0,.118,2.38c2.09,4.613,7.415,7.537,7.037,13.468-.019.3.61.843,1.018.943.986.241,2.383,1.546,2.934.255.8-1.868,1.5-4.772-.083-5.943C272.291,364.9,269.28,360.682,265.461,356.9Zm37.621-100.3c-2.074-.819-4.05-1.478-5.914-2.37-2-.955-3.9-2.1-5.82-3.216-1.352-.784-1.738.373-2.274,1.106-.479.655-1.093,1.257-.312,2.264C291.872,258.4,298.64,259.582,303.082,256.6Zm4.77,141.557c-5.439-.805-10.279-.7-13.868,4.605C298.682,400.953,304.947,405.918,307.852,398.154Zm-65.226,12.964c-2.308-2.9-6.636-3.684-12.487-2.256C234.866,413.747,236.336,414.013,242.626,411.118Zm-18.21-266.372a9.282,9.282,0,0,0-5.745,2.361,2.54,2.54,0,0,0-.479,3.113c.655,1.289,1.734.42,2.547,0a14.287,14.287,0,0,1,4.221-1.043c.916-.172,2.2-.688,1.907-2.252C226.609,145.521,226,144.607,224.416,144.746ZM277,340.111c3.8,1.36,7.569.578,11.32.083,2.076-.275,1.571-2.05,1.384-3.251-.333-2.139-1.693-.7-2.494-.393C283.853,337.834,280.488,339.063,277,340.111ZM328.484,211.5a18.936,18.936,0,0,0-2.68.268c-.881.233-2.311.056-2.279,1.353s1.409,1.1,2.33,1.256c1.825.31,3.659.571,5.491.847,1.064.161,2.09.018,2.417-1.148.394-1.4-.821-1.6-1.738-1.843C330.717,211.892,329.376,211.68,328.484,211.5Zm15.386-74.587a2.266,2.266,0,0,1,1.322,2.6c-.042.727-.079,1.6.9,1.751,1.774.269,4.073.018,4.692-1.31.682-1.465-1.38-2.2-2.789-2.634C346.837,136.969,345.712,136.359,343.87,136.913Zm-12.238,80.5a7.739,7.739,0,0,0-4.652-1.247,1.869,1.869,0,0,0-1.747,2.039c-.04,1.457,1.275.83,1.934.737C328.663,218.728,330.338,218.83,331.632,217.413Zm-1.6-78.648c2.373.585,3.543,2.04,5.138.994a2.645,2.645,0,0,0,.2-2.3C333.877,136.653,332.479,137.4,330.037,138.765Z" transform="translate(-139.442 -77.471)"/><path class="cls-2" d="M277.785,324.419c-5.021,4.407-9.2,9.639-13.868,14.393-6.913,7.043-24.2,4.265-30.062-2.207-1.2-1.329-.748-2.168-.106-3.559,1.892-4.095,5.163-7.661,5.087-12.555q.115-.538.232-1.076c3.082-6.5,7.09-12.733,4.96-20.533-1.662-6.087-3.175-12.217-4.632-18.357-1.226-5.162-.76-5.77,4.34-6.367,2.032-.238,4.075-.379,6.521-.6-.8,1.856-2.26,2.181-3.135,3.106l-.079.1.1-.112c10.27-5.322,20.973-3.588,31.659-1.915,9.311,1.458,18.5,3.81,28.008,3.8a30.022,30.022,0,0,0,4.474-.107c.83-.126,3.133.809,1.94-1.8-.1-.212.738-.916,1.207-1.312a50.005,50.005,0,0,0,11.96-14.581c1.168-2.177,2.424-2.3,4.405-1.869,6.394,1.378,6.486,1.353,5.969,8.291-.506,6.779-.837,13.573-3.1,20.12-2.106,6.082-6.482,9.15-12.478,10.411-10.41,2.19-21.048,1.938-31.575,2.86a65.867,65.867,0,0,0-19.457,4.431c3.764-.565,7.53-1.121,11.292-1.7,3.52-.537,4.241.075,3.713,3.627-.7,4.715-3.026,8.81-5.227,12.945-.546,1.027-2.26,2.9-2.151,4.24Z" transform="translate(-139.442 -77.471)"/><path class="cls-3" d="M192.876,129.14c2.467-3.535,3.805-7.78,6.878-10.936,1.187-1.219,2.067-2.8,3.92-3.288.981,1.448.508,3.187,1.257,5.249.366-3.01.534-5.476.993-7.887.553-2.9,1.7-5.539,5.008-6.209,1.463-.3,1.5-1.479,2.006-2.411,6.415-11.86,17.309-17.941,29.236-22.795-3.209,5.043-6.5,9.93-7.421,15.976a72.265,72.265,0,0,1,9.194-15.077c1.888-2.381,3.111-2.816,5.369-.544A68.012,68.012,0,0,0,262.672,91.96c1.44.856,1.558,1.494.365,2.737-1.443,1.5-2.632,3.25-3.932,4.893.649.5,1.094.524,1.546.171,1.215-.946,1.731-3.374,3.462-2.872a13.04,13.04,0,0,1,5.245,3.377c.736.734,1.248,1.923,2.038.861,1.983-2.666,3.265-.733,4.767.382a54.29,54.29,0,0,0,15.223,8c-2.11,1.641-3.935,3.029-5.726,4.459a51.384,51.384,0,0,0-10.167,10.881c-.744,1.067-.715,3.352-2.728,2.9-1.927-.431-2.544-2.178-2.368-4.159-3.091,1.612-5.912-.106-5.26-3.082a16.106,16.106,0,0,1,1.218-3.112c.391-.862,1.361-1.526.6-3.106a11.518,11.518,0,0,0-3.021,5.156c-.512,1.439-.947,2.147-2.573,1.237a79.032,79.032,0,0,0-14.92-6.738c-2.583-.807-1.008-2.971-1.692-4.422-1.019-.039-.931.951-1.134,1.487-.36.945-.383,1.988-1.888,1.572-1.31-.362-2.174-.8-2.111-2.474.1-2.755,1.1-5.313,1.312-8.084a12.565,12.565,0,0,0-2.718,7.425c-.079,1.542-.533,2.235-2.219,2.095a15.991,15.991,0,0,0-9.915,2.719c-1.779,1.112-2.429.622-2.436-1.3-.011-2.907,0-5.813,0-9.391-1.666,3.8-1.584,7.2-1.406,10.613.064,1.225.321,2.31-.972,3.3-9.039,6.937-16.76,15.227-24.155,23.842-.145.169-.428.218-.76.377-1.359-2-.614-4.327-1.056-6.844a6.726,6.726,0,0,0-.944,5.954c.823,2.527-.069,4.224-1.56,6.076-1.791,2.225-3.319,4.661-4.975,7-.409.576-.583,1.6-1.479,1.45-1.116-.182-1-1.326-1.057-2.121-.338-5.206,1.6-9.744,4.329-14.006.328-.512.5-1.549,1.565-1.067.144.065.213.3.317.452-.908-.681.03-1.286.106-1.915a25.075,25.075,0,0,1,.536-2.453q.127-2,.26-4l.121.148-.122.144Z" transform="translate(-139.442 -77.471)"/><path class="cls-4" d="M181.674,174.719c3.546-.289,4.244-3.573,5.693-5.8,11.54-17.716,25.352-33.156,43.455-44.438a5.78,5.78,0,0,1,4.884-.754c10.535,2.587,20.9,5.621,30.671,10.433a27.344,27.344,0,0,1,7.281,4.811c-5.278,2.062-10.365,3.786-15.221,6.014-6.258,2.871-12.352,5.68-19.5,3.093-1.547-.561-3.473-.243-5.2-.095-2.736.234-5.1.319-5.911-3.23-.356-1.552-2.027-1.963-3.714-1.75-4.326.545-6.479,2.344-7.665,6.9-.37,1.421-1.438,1.608-2.438,1.967-9.742,3.49-17.716,9.519-24.532,17.164a29.627,29.627,0,0,0-3.078,4.633c-.859,1.439-1.9,2.282-3.656,1.719C182.258,175.37,181.5,175.78,181.674,174.719Z" transform="translate(-139.442 -77.471)"/><path class="cls-2" d="M141.729,423.587c1.129-.321,2.03,1.069,3.2.428.8.306.432.985.492,1.527,2.863,5.039,7.726,7.537,12.74,9.641,14.526,6.1,29.675,5.68,44.838,3.566a100.134,100.134,0,0,0,46.5-18.712c.737-.546,1.569-1.759,2.478-.654s.385,2.266-.7,3.24a74.681,74.681,0,0,1-17.13,11.071,126.233,126.233,0,0,1-41.273,12.168c-13.973,1.685-27.717,1.364-40.908-4.3a24.333,24.333,0,0,1-7.145-4.645c-2.588-2.436-4.105-5.284-3.432-8.993.145-.8.518-1.738-.466-2.356A1.441,1.441,0,0,1,141.729,423.587Z" transform="translate(-139.442 -77.471)"/><path class="cls-2" d="M301.676,416.022c4.647,3.986,10.527,5.551,16.109,7.108a115.5,115.5,0,0,0,37.612,4.4c12.616-.711,25-2.648,36.289-8.883.654-.361,1.28-.78,1.953-1.1,1.232-.582,2.342-3.065,3.578-1.579a5.158,5.158,0,0,1,.235,6.6c-3.168,4.119-7.642,6.37-12.338,8.06-14.136,5.088-28.635,5.171-43.265,2.69-1.336-.227-2.644-.749-3.939.085-1.635-.357-3.611.617-4.866-1.242-6.928-2.443-13.928-4.7-20.762-7.383-6.171-2.422-12.675-4.45-17.134-10.067,2.474-1.415,3.889,1.572,6,1.126l.308-.027Z" transform="translate(-139.442 -77.471)"/><path class="cls-2" d="M307.024,269.558c6.154-2.49,10.6-7.165,15.09-11.784.875-.9,1.491-2.916,3.1-1.868,1.684,1.1.413,2.614-.3,3.908-2.482,4.474-5.992,8.171-9.06,12.206-4.677,6.15-10.741,5.214-17.155,4.366-12.416-1.641-24.674-4.469-37.1-5.122A13.7,13.7,0,0,1,275,268.318a84.715,84.715,0,0,0,27.2,3.739,4.315,4.315,0,0,0,4.038-2.128Z" transform="translate(-139.442 -77.471)"/><polygon class="cls-1" points="52.94 53.05 53.061 52.906 52.941 52.758 52.673 52.902 52.94 53.05"/><path class="cls-5" d="M312.743,205.648c-8.39-12.815-19.657-20.386-32.619-25.481-11.423-4.491-23.169-7.941-35.692-5.554-17.116,3.263-29.067,13.986-39.109,27.4a18.065,18.065,0,0,0-3.966,9.488,19.405,19.405,0,0,1-1.966,5.992,6.318,6.318,0,0,1-5.751,4.151c-2.583.02-4.309-1.813-5.562-3.894-4.059-6.746-.354-16.51,7.218-18.528a4.879,4.879,0,0,0,3.984-3.855c5.2-16.215,14.38-29.55,29.457-38.053,12.573-7.091,26.344-7.874,40.3-6.079,10.993,1.415,21.319,4.8,30.153,11.921a29.562,29.562,0,0,1,8.787,11.447A61.911,61.911,0,0,1,312.743,205.648Z" transform="translate(-139.442 -77.471)"/><path class="cls-5" d="M239.068,319.415q-.115.537-.232,1.076c-1.6.042-1.5,1.515-1.887,2.43a46.007,46.007,0,0,1-4.763,9.292c-1.737,2.385-1.1,4.153.812,5.789a23.066,23.066,0,0,0,4.236,3.034c11.268,5.853,19.91,6.886,29.9-3.147,2.811-2.822,5.6-5.675,8.212-8.679,1.156-1.331,2.011-1.906,3.708-.924,3.086,1.787,6.53,2.983,9.313,5.642A30.046,30.046,0,0,1,279.2,337.6c-3.052.71-6.07,1.57-10.131,2.633a47.019,47.019,0,0,0,22.557.939c4.486-.936,4.568-.968,4.127,3.67-.819,8.615-4.246,15.809-11.769,20.6-3.077,1.961-5.893,1.893-8.777-.771-5.678-5.246-10.438-11.313-16.314-17.829,1.284,6.124,3.971,10.486,6.563,14.911,1.109,1.893,3.934,3.916,3.039,5.565-1.075,1.982-4.308.8-6.568.776-11.882-.119-23.635-1.137-34.657-6.146-1.209-.549-3.088-.86-3.165-2.241-.079-1.4,1.872-1.7,2.941-2.448a78.533,78.533,0,0,0,10.209-8.124c-1.249-1.094-2.042-.071-2.794.275a65.412,65.412,0,0,1-20.075,5.559c-1.105.126-2.149.373-3.189-.447-7.961-6.277-13.651-13.782-13.486-24.517a16.031,16.031,0,0,1,.153-2.606c.821-4.506,1.52-4.794,5.621-2.763a92.983,92.983,0,0,0,22.947,7.842,114.258,114.258,0,0,1-18.924-16.88c6.893-3.43,14.156-4.381,21.6-4.272,2.333.034,4.648.744,6.986,1.028,3.08.374,4.694,1.512,3.062,4.866A5.7,5.7,0,0,0,239.068,319.415Z" transform="translate(-139.442 -77.471)"/><path class="cls-5" d="M241.19,150.29c-1.759,1.4-3.95,1.435-5.854,2.185-18.981,7.478-30.536,21.707-36.775,40.655-.844,2.562-1.8,4.038-4.593,4.836-5.807,1.657-9.217,7.334-9.023,13.956.193,6.576,3.135,10.345,9.581,12.044,1.428.377,2.42.584,2.489,2.489.448,12.348,7.665,19.782,18.286,24.572,4.5,2.027,4.545,1.924,2.874,6.516-1.915,5.265-3.854,10.521-5.743,15.8-.536,1.5-1.063,2.455-2.895,1.328-9.712-5.974-18.983-12.473-25.571-22.029-3.227-4.682-4.87-9.874-3.163-15.57.359-1.2.041-3.617,2.812-2.851.588.163.788-.262.233-1.876-2.063-6-4.152-11.958-5.144-18.294-4.2-26.819,12.556-53.485,38.628-61.191,7.245-2.141,14.561-3.835,22.2-3.377A1.666,1.666,0,0,1,241.19,150.29Z" transform="translate(-139.442 -77.471)"/><path class="cls-6" d="M342.973,249.008c-1.532.37-2.837,1.346-4.629,1.062-2.118-.335-1.574-1.307-.886-2.436-1.015-.613-1.43.3-2.039.607a2.171,2.171,0,0,1-2.421-.4c-1.086-.817-.019-1.579.216-2.292.49-1.492,1.764-2.73,1.443-4.664-1.081.415-1.268,1.405-1.686,2.168-2.126,3.878-2.6,3.931-5.476.39a20.894,20.894,0,0,1-1.87-2.781c-2.866-5.009-2.605-5.643,2.744-7.012a13.041,13.041,0,0,0,9.349-7.864c1.964-4.709.965-6.886-3.923-8.289,3.593-6.412,7.114-12.8,10.75-19.122,1.129-1.963,2.912-3.206,5.313-2.532,2.492.7,3.5,2.717,3.6,5.115.188,4.2-1.22,8.064-2.93,12.107a10.633,10.633,0,0,0,2.6-.031c3.452-.931,5.118.393,4.5,3.976a21.846,21.846,0,0,0-.393,6.679c.573,4.18,3.626,5.844,7.543,3.956-1.877-.8-4.21-.07-5.29-2.19a9,9,0,0,1-.449-6.914c1.116-3.616-.261-7.207.26-10.81.786-5.43,2.133-6.673,7.2-6.134,3.968.422,5.892,3.046,5.34,7.836a32.852,32.852,0,0,1-6.426,16.064c2.643.036,2.723,1.557,2.445,3.694a24.892,24.892,0,0,1-22,21.536c-.8.078-1.694.578-2.4-.27a.433.433,0,0,1-.007-.339,1.405,1.405,0,0,1,.2-.311,7.75,7.75,0,0,0,5.476-4.222Z" transform="translate(-139.442 -77.471)"/><path class="cls-4" d="M323.808,203.4c-.155-6.031.965-12.015,1.018-17.972.056-6.221,2.421-12.155,1.622-18.382-.357-2.78.67-5.344,1.229-7.985a2.475,2.475,0,0,1,2.137-2.209,43.709,43.709,0,0,1,20.68.858c2.428.673,2.826,2.324,2.556,4.615-.945,8.038-1.683,16.1-2.653,24.136-.3,2.448-.12,3.715,2.861,4.251,6.518,1.172,8.586,8.89,4.484,15.746a6.571,6.571,0,0,1-1.079,1.5c-.749.689-1.3,2.229-2.448,1.707-1.523-.692-.194-2.044.068-2.911a18.406,18.406,0,0,0,.548-6.286c-.137-3-1.46-5.271-4.493-6.129-3.081-.871-5.466.493-7.019,2.988-2.3,3.692-4.42,7.507-6.379,11.391-1.062,2.1-2.082,3.121-4.548,2.017a11.9,11.9,0,0,0-4.379-.725c-4.665-.154-4.668-.106-4.376-4.751C323.676,204.635,323.75,204.018,323.808,203.4Z" transform="translate(-139.442 -77.471)"/><path class="cls-6" d="M348.511,408.054c7.18-7.965,14.847-14.431,25.137-17.183a7.256,7.256,0,0,1,5.992.89c6.413,3.764,11.047,9.147,14.64,15.555a8.51,8.51,0,0,0,2.541,3.347c2.055,1.451-.268,2.8-1.368,3.6a50.222,50.222,0,0,1-11.044,6.1c-5.193,2.083-10.65,3.118-16.057,4.351-1.684.384-2.992-.007-4.135-1.918A41.036,41.036,0,0,0,348.511,408.054Z" transform="translate(-139.442 -77.471)"/><path class="cls-6" d="M301.676,416.022l-.224-.214-.308.027c-1.117-2.169-3.381-2.833-5.3-3.827a13.575,13.575,0,0,1-7-8.652l.579-.668c9.565,2.247,19.329,1.258,29,1.727A158.176,158.176,0,0,1,337,405.97c10.824,1.815,18.906,7.753,25.217,16.459,1.376,1.9,1.533,3-1.368,3.125a159.564,159.564,0,0,1-33.81-1.834c-7.816-1.338-14.921-4.312-22.152-7.158C303.842,416.151,302.842,415.641,301.676,416.022Zm.83-9.565c-1.392.306-3.771-.446-4.436,1.853-.712,2.462,1.516,3.42,3.228,4.31a13.758,13.758,0,0,0,8.242,1.618c1.258-.163,2.609-.488,3.016-1.8.469-1.508-.648-2.525-1.754-3.341A14.127,14.127,0,0,0,302.506,406.457Z" transform="translate(-139.442 -77.471)"/><path class="cls-6" d="M165.648,407.254c10.946.695,19.649,4.053,26.906,10.963,1.624,1.546,1.874,2.392-.155,3.934a55.658,55.658,0,0,0-12.66,14.1c-.778,1.186-1.475,2.19-3.2,1.948-8.813-1.233-17.263-3.386-24.8-8.461-2.489-1.676-2.747-3.173-1.435-5.769a67.874,67.874,0,0,1,8.664-13.437C161.039,408.081,163.277,406.35,165.648,407.254Z" transform="translate(-139.442 -77.471)"/><path class="cls-6" d="M226.757,220.791c.988-9.971,3.807-18.25,12.146-23.821,1.981-1.323,3.17-.967,4.708.624,6.831,7.068,9.322,16,10.863,25.278.712,4.288.847,8.672,1.222,13.015.094,1.084.348,2.13-.876,2.97-5.648,3.875-17.859,2.3-22.607-3-.973-1.086-2.058-1.775.275-3.029,2.39-1.285,2.3-7.006.247-10.424C231.5,220.347,229.971,218.724,226.757,220.791Z" transform="translate(-139.442 -77.471)"/><path class="cls-6" d="M237.779,415.64a20.63,20.63,0,0,0-2.9,1.678c-1.717,1.39-3.945,2.773-3.17,5.4.758,2.562,3.212,2.235,5.436,2.625-17.421,9.894-36.222,13.745-56.832,12.979,8.947-13.13,19.086-22.949,35.819-22.471a147.86,147.86,0,0,0,21.565-1.436C237.721,414.821,237.75,415.23,237.779,415.64Z" transform="translate(-139.442 -77.471)"/><path class="cls-5" d="M311.588,219.12c-2.736.379-3.829,3.263-6.3,4.11-1.374.471-3.226,2.225-3.919,1.4a4.045,4.045,0,0,1-.251-5c1.788-.347,2.436-2,3.512-3.132,4.94-5.209,3.338-11.118-3.492-13.029-10.523-11.276-23.9-16.911-38.756-19.652a60.852,60.852,0,0,0-12.241-.714c-2.44-3.318-6.025-4.483-9.833-5.229,5.23-2.968,11.044-2.86,16.565-2.09,17.147,2.392,32.917,8.281,45.947,20.189a39.03,39.03,0,0,1,9.443,12.781c1.684,3.712-.24,6.939-.685,10.374Z" transform="translate(-139.442 -77.471)"/><path class="cls-6" d="M342.7,392.839c-3.668,1.738-6.053,4.755-8.136,7.935-1.362,2.08-2.506,3.206-5.295,2.583-2.459-.549-5.138-.115-8.476-.115,2.535-5.194,4.926-9.321,10.333-10.714,3.127-.806,6.16-2.07,9.324-2.6,1.691-.282,3.769-2.727,5.53.412.422.751,2-.469,2.956-1,8.126-4.456,16.26-2.774,25.5-.132-11.187,2.738-19.1,8.727-25.947,16.34-.557.619-.988,1.647-2.031,1.381-3.6-.919-7.21-1.844-10.759-2.948-1.789-.557-.326-1.588.047-2.2C337.732,398.561,340.6,396.014,342.7,392.839Z" transform="translate(-139.442 -77.471)"/><path class="cls-4" d="M230.706,119.154c.976,2.456-.47,3.855-2.727,5.3-16.511,10.559-29.24,24.845-40.043,41.009-1.043,1.561-1.989,4.642-3.811,3.833-1.8-.8.352-3.214.805-4.872,2.682-9.812,9.259-17.227,15.659-24.669,6.982-8.118,14.468-15.763,23.2-22.071.7-.508,1.413-1.012,2.156-1.459C230.4,113.541,230.44,113.569,230.706,119.154Z" transform="translate(-139.442 -77.471)"/><path class="cls-5" d="M222.092,361.249c13.942,7.76,28.887,8.821,44,8.647,3.612-.041,4.838.859,4.485,4.5-.2,2.106-1.023,2.715-2.9,2.979-14.507,2.04-28.526.593-41.8-5.887C219.678,368.46,219.64,368.093,222.092,361.249Z" transform="translate(-139.442 -77.471)"/><path class="cls-6" d="M209.412,414.6a30.668,30.668,0,0,0-11.959,4c-1.18.73-1.933.464-2.863-.507-8.021-8.384-18.056-11.967-29.469-12.126-.494-1.338.727-1.489,1.325-1.876,8.5-5.492,17.259-7.229,26.692-2.113C199.136,405.229,205.037,408.487,209.412,414.6Z" transform="translate(-139.442 -77.471)"/><path class="cls-4" d="M352.769,128.378c-.137,2.6.693,6.021-.646,7.611-1.84,2.185-4.427-1.174-6.925-1.339-4.134-.275-8.214-.285-12.164,1.064-2.334.8-3.172.2-2.967-2.3.326-3.963.522-7.941.654-11.916.06-1.811.906-2.59,2.587-3.04a27.581,27.581,0,0,1,15.055-.265c2.861.824,5.011,2.1,4.338,5.708a24.754,24.754,0,0,0-.045,4.469Z" transform="translate(-139.442 -77.471)"/><path class="cls-6" d="M260.481,232.236c.426,4.91,1.072,5.381,4.937,3.079,5.337-3.18,10.443-6.745,15.725-10.02a44.776,44.776,0,0,1,11.564-5.616c-1.421,9.722-5.247,17.551-13.945,22.349a12.037,12.037,0,0,1-4.9,1.671c-1.734.132-3.778.661-5.1-.365-1.813-1.407,1.132-2.56.851-4.112a5.649,5.649,0,0,1,.219-1.469c.089-.831.776-1.8-.016-2.461-.849-.711-1.556.284-2.282.625-1.117.526-2.18,1.549-3.3,1.593-1.275.051-2.264,2.282-3.7.51C259.191,236.346,258.6,234.607,260.481,232.236Z" transform="translate(-139.442 -77.471)"/><path class="cls-4" d="M275.476,137.775c-12.515-8.622-26.372-12.445-40.393-15.81-4.284-1.028-2.757-4.473-2.8-6.971-.05-2.764,2.5-1.854,3.978-1.7,11.447,1.217,21.205,6.686,30.793,12.514,1.865,1.133,3.585,2.508,5.358,3.789C274.961,131.443,275.932,133.948,275.476,137.775Z" transform="translate(-139.442 -77.471)"/><path class="cls-2" d="M229.846,375.4c5.219,1.3,9.629,2.935,14.3,3.441,1.651.179,2.184,1.421,2.128,2.985-.285,8,1.258,15.866,1.808,23.8.1,1.425,1.26,3.492-1.161,4.062-2.228.524-4.194-.082-5.16-2.523-1.733-4.379-3.605-8.706-5.25-13.117C234.275,388.063,232.2,382.018,229.846,375.4Z" transform="translate(-139.442 -77.471)"/><path class="cls-4" d="M370.209,222.805c.609,3.641,1.161,7.293,1.851,10.918.358,1.877,1.047,3.655,3.308,4.01,2.132.334,3.583-.8,4.7-2.413,2.752-3.984,3.275-8.541,3.146-13.2-.055-1.978.064-3.328,2.65-3.262,2.394.061,3.476.977,3.347,3.342-.348,6.361-1.161,12.62-3.483,18.63-1.443,3.736-3.927,5.492-7.963,5.39a60.444,60.444,0,0,1-12.522-1.763c-1.455-.346-2.424-.662-1.149-2.363C368.372,236.383,369.856,229.85,370.209,222.805Z" transform="translate(-139.442 -77.471)"/><path class="cls-6" d="M319.8,232.658c3.27,2.543,2.881,6.969,5,10.171.4.6-.122,1.689-1.493,1.028-4.782-2.3-11-13.754-10.255-19.038.494-3.51,2.456-5.365,5.826-4.743a38.2,38.2,0,0,0,13.345-.26c4.743-.776,5.855.905,3.981,5.427-1.978,4.772-6.519,7.42-12.717,7.415Z" transform="translate(-139.442 -77.471)"/><path class="cls-2" d="M289.723,400.837a3.541,3.541,0,0,1-3.375-1.595c-4.69-5.763-9.555-11.383-14.268-17.127-.789-.961-2.759-1.846-1.25-3.556,1.271-1.442,1.916-4.45,5-2.344a4.325,4.325,0,0,0,3.977.4c2.938-1.207,4.185.027,5.151,2.684,2,5.515,5.7,10.113,8.592,15.147.822,1.427,3.145,2.67,2.006,4.369C294.4,400.528,292,400.891,289.723,400.837Z" transform="translate(-139.442 -77.471)"/><path class="cls-5" d="M197.613,221.9c2.115-2.455,4.257-5.017,4.677-8.29.856-6.669,4.822-11.532,8.911-16.359a64.8,64.8,0,0,1,21.011-16.864c1.16-.566,2.284-1.619,3.789-.954.111,1.767-2.307,3.179-2.381,3.324-.039.067-1.856,1.015-.578,2.1-.673,1.988-2.089,2.965-4,3.925-8.194,4.128-14.906,10.181-20.779,17.16-1.6,1.9-.936,4.519-1.469,6.781-1.405,5.964-3.857,8.795-8.793,9.567C197.877,222.16,197.746,222.028,197.613,221.9Z" transform="translate(-139.442 -77.471)"/><path class="cls-5" d="M273.061,265.834c4.708-3.126,8.936-5.745,12.136-9.62a1.887,1.887,0,0,1,2.645-.445c2.373,1.343,4.732,2.712,7.085,4.088a2.129,2.129,0,0,1,.833.726c.826,1.582-4.153,9.489-5.957,9.233C284.3,269.036,278.786,268.242,273.061,265.834Z" transform="translate(-139.442 -77.471)"/><path class="cls-6" d="M381.823,222.5c-.253,4.268-.661,7.979-2.647,11.284-.763,1.268-1.61,2.694-3.445,2.373-1.654-.29-1.878-1.766-2.252-3.093-1.208-4.281-.547-8.917-2.709-13.065-.712-1.365,2.447-6.882,3.554-7.081,3.367-.605,6.01,1.392,6.852,5.284C381.516,219.777,381.661,221.393,381.823,222.5Z" transform="translate(-139.442 -77.471)"/><path class="cls-6" d="M219.461,408.39c-.443,2.659,3.158,2.8,3.153,5.63-3.3.164-6.7.318-10.1.511a2.045,2.045,0,0,1-1.85-1.03c-4.01-5.566-9.548-9.191-16.244-12.448,3.807-.633,6.629.694,9.548,1.267,5.261,1.034,10.509,2.072,14.414,6.242.355.379.823.507,1.186-.069Z" transform="translate(-139.442 -77.471)"/><path class="cls-5" d="M213.547,275.144c2.454-6.763,4.959-13.507,7.339-20.3,1.048-2.991,3.713-2.448,5.868-2.839,1.064-.193.836.94.581,1.632-2.4,6.536-4.78,13.082-7.264,19.588-1.146,3-4.169,1.307-6.012,2.66Z" transform="translate(-139.442 -77.471)"/><path class="cls-5" d="M225.2,250.185a8.19,8.19,0,0,1-7.386.172c-9.5-3.816-16.818-9.67-19.01-20.322a4.414,4.414,0,0,1-.254-1.461c.267-1.656-1.195-4.4,1.584-4.588,2.478-.165,1.078,2.429,1.33,3.725,1.919,9.867,8.69,15.3,17.2,19.216C220.792,247.905,223.117,248.472,225.2,250.185Z" transform="translate(-139.442 -77.471)"/><path class="cls-5" d="M296.612,360.556c-1.581.335-1.3,1.885-1.807,2.881-2.846,5.58-6.88,9.74-13.187,11.157-1.023.23-2.875,1-2.956-.938-.071-1.7-1.383-4.219,1.534-5.01,9.241-2.506,13.545-9.431,16.222-17.865.171-.541-.092-1.281.631-1.552,1.075,3.838-.913,7.547-.466,11.368Z" transform="translate(-139.442 -77.471)"/><path class="cls-6" d="M145.423,425.542c-.06-.542.305-1.221-.492-1.527-1.512-2.767-.534-5.014,1.166-7.386a43.113,43.113,0,0,1,16.75-14.459,3.169,3.169,0,0,1,3.282-.069c-1.267,1-2.287,1.768-3.271,2.582a49.82,49.82,0,0,0-13.9,18.69C148.211,425.062,147.378,426.079,145.423,425.542Z" transform="translate(-139.442 -77.471)"/><path class="cls-6" d="M326.121,244.477c4.285,4.22,8.869,6.981,14.559,7.528.732.071,1.66.105,1.711,1.03a3.262,3.262,0,0,1-1.147,2.258c-2.64,2.859-8.344,3.414-12.519,1.168-3.436-1.848-4.767-5.335-3.614-9.585A21.473,21.473,0,0,1,326.121,244.477Z" transform="translate(-139.442 -77.471)"/><path class="cls-5" d="M196.06,335.733c1.377,3.195,2.313,5.569,3.41,7.868a23.555,23.555,0,0,0,7.632,9.549c3.936,2.676,4.305,5.873,3.184,9.861C201.223,358.749,193.816,345.314,196.06,335.733Z" transform="translate(-139.442 -77.471)"/><path class="cls-3" d="M344.077,146.711a34.44,34.44,0,0,0-.192,4.449c.21,2.627-.562,3.461-3.455,3.586-4.018.173-4.9-1.226-4.3-4.855a64.753,64.753,0,0,0,.751-9.244c.057-2.656,1.7-2.626,3.489-2.383s4.249-.361,4.011,2.882c-.136,1.846-.025,3.711-.025,5.567Z" transform="translate(-139.442 -77.471)"/><path class="cls-3" d="M339.318,107.943c.029-.442.189-1.806.189-3.169,0-2.318.207-4.14,3.4-3.879,2.981.243,4.137,1.417,3.7,4.43a58.483,58.483,0,0,0-.474,7.431c-.035,2.3-.784,3.276-3.317,3.01C338.513,115.313,339.014,116.937,339.318,107.943Z" transform="translate(-139.442 -77.471)"/><path class="cls-5" d="M228.242,354.589c-1.569.946-3.077,2.019-4.722,2.807-1.905.912-3.207,1.982-3.562,4.306-.581,3.812-3.818,2.148-6.027,2.507-.893.145-1.862-.033-1.547-1.359.518-2.181-1.025-5.273,2.6-6.115,4.321-1,8.651-1.967,12.978-2.948Z" transform="translate(-139.442 -77.471)"/><path class="cls-6" d="M323.573,394.908c-1.432,2.537-2.731,4.733-3.912,6.989a1.717,1.717,0,0,1-1.816.959c-2.863-.1-5.725-.26-8.589-.318-1.534-.03-1.709-.616-.973-1.808.854-1.384,1.641-2.95,3.339-3.346C315.46,396.49,319.34,395.773,323.573,394.908Z" transform="translate(-139.442 -77.471)"/><path class="cls-5" d="M304.913,258.764c-1.815,3.532-3.423,6.714-5.089,9.865a3.653,3.653,0,0,1-2.58,1.953c-1.061.179-2.4.568-3.218-.278-1.061-1.089.25-1.976.683-2.924C296.63,263.17,298.607,259.029,304.913,258.764Z" transform="translate(-139.442 -77.471)"/><path class="cls-5" d="M265.461,356.9c3.819,3.784,6.83,8,11.024,11.1,1.58,1.171.881,4.075.083,5.943-.551,1.291-1.948-.014-2.934-.255-.408-.1-1.037-.639-1.018-.943.378-5.931-4.947-8.855-7.037-13.468A2.267,2.267,0,0,1,265.461,356.9Z" transform="translate(-139.442 -77.471)"/><path class="cls-5" d="M219.325,329.042c-4.947-.361-9.056-2.745-13.242-5-3.014-1.626-.568-4.34-.352-7.173l13.709,12.194Z" transform="translate(-139.442 -77.471)"/><path class="cls-5" d="M303.082,256.6c-4.442,2.985-11.21,1.8-14.32-2.216-.781-1.007-.167-1.609.312-2.264.536-.733.922-1.89,2.274-1.106,1.918,1.112,3.824,2.261,5.82,3.216C299.032,255.119,301.008,255.778,303.082,256.6Z" transform="translate(-139.442 -77.471)"/><path class="cls-6" d="M240.117,413.9c1.755-.6,3.479-1.338,5.276-1.765,1.362-.324,2.952-2.841,4.195.02,1,2.293,2.625,4.815-.927,6.586-1.586.791-2.636,2.7-5.159,2.274.945-1.637,3.1-2.906,1.761-4.953-1.254-1.915-3.363-1.035-5.137-1.181A.613.613,0,0,0,240.117,413.9Z" transform="translate(-139.442 -77.471)"/><path class="cls-6" d="M307.852,398.154c-2.9,7.764-9.17,2.8-13.868,4.605C297.573,397.45,302.413,397.349,307.852,398.154Z" transform="translate(-139.442 -77.471)"/><path class="cls-6" d="M219.566,408.493c-.049-.664-1.541-1.695.59-1.769,3.1-.109,5.871.5,8.134,2.766,1.129,1.132,2.307,2.215,3.827,3.669-3.76.736-6.94,1.673-9.247-2.2a4.681,4.681,0,0,0-3.411-2.565Z" transform="translate(-139.442 -77.471)"/><path class="cls-6" d="M302.919,205.446c3.4,1.63,3.255,4.428,2.055,7.232a73.711,73.711,0,0,1-3.856,6.953c1.788-.347,2.436-2,3.512-3.132,4.94-5.209,3.338-11.118-3.492-13.029a18.826,18.826,0,0,1-2.765.735c-.651.071-2.518.509-2.518.509l-3.133,1.338,1.966.217,3.817-.937h.455" transform="translate(-139.442 -77.471)"/><path class="cls-6" d="M302.131,205.3l-3.7.03" transform="translate(-139.442 -77.471)"/><path class="cls-6" d="M242.626,411.118c-6.29,2.895-7.76,2.629-12.487-2.256C235.99,407.434,240.318,408.216,242.626,411.118Z" transform="translate(-139.442 -77.471)"/><path class="cls-4" d="M224.414,144.746c1.585-.139,2.2.775,2.453,2.174.289,1.564-.991,2.08-1.907,2.252a14.287,14.287,0,0,0-4.221,1.043c-.813.425-1.892,1.294-2.547,0a2.54,2.54,0,0,1,.479-3.113A9.281,9.281,0,0,1,224.414,144.746Z" transform="translate(-139.442 -77.471)"/><path class="cls-5" d="M277,340.111c3.492-1.048,6.857-2.277,10.21-3.561.8-.306,2.161-1.746,2.494.393.187,1.2.692,2.976-1.384,3.251C284.565,340.689,280.8,341.471,277,340.111Z" transform="translate(-139.442 -77.471)"/><path class="cls-4" d="M328.484,211.5c.892.18,2.233.392,3.541.733.917.239,2.132.444,1.738,1.843-.327,1.166-1.353,1.309-2.417,1.148-1.832-.276-3.666-.537-5.491-.847-.921-.156-2.3.028-2.33-1.256s1.4-1.12,2.279-1.353A18.936,18.936,0,0,1,328.484,211.5Z" transform="translate(-139.442 -77.471)"/><path class="cls-4" d="M343.87,136.913c1.842-.554,2.967.056,4.121.409,1.409.431,3.471,1.169,2.789,2.634-.619,1.328-2.918,1.579-4.692,1.31-.975-.147-.938-1.024-.9-1.751A2.266,2.266,0,0,0,343.87,136.913Z" transform="translate(-139.442 -77.471)"/><path class="cls-4" d="M331.632,217.413c-1.294,1.417-2.969,1.315-4.465,1.529-.659.093-1.974.72-1.934-.737a1.869,1.869,0,0,1,1.747-2.039A7.739,7.739,0,0,1,331.632,217.413Z" transform="translate(-139.442 -77.471)"/><path class="cls-4" d="M330.037,138.765c2.442-1.367,3.84-2.112,5.341-1.307a2.645,2.645,0,0,1-.2,2.3C333.58,140.805,332.41,139.35,330.037,138.765Z" transform="translate(-139.442 -77.471)"/><path class="cls-3" d="M240.117,413.9a.613.613,0,0,1,.009.981l-2.352.763c-.024-.411-.053-.82-.079-1.23Z" transform="translate(-139.442 -77.471)"/><path class="cls-3" d="M302.919,205.446l-.788-.144" transform="translate(-139.442 -77.471)"/><path class="cls-5" d="M198.006,222.293c-.271.292-.56.4-.844.039-.011-.015.295-.282.452-.432C197.746,222.028,197.877,222.16,198.006,222.293Z" transform="translate(-139.442 -77.471)"/><path class="cls-6" d="M288.839,403.356l-.28-.7q.429.019.859.036Z" transform="translate(-139.442 -77.471)"/><polygon class="cls-1" points="107.699 199.181 107.602 199.293 107.68 199.192 107.699 199.181"/><path class="cls-1" d="M342.973,249.008l6.159-3.427a7.75,7.75,0,0,1-5.476,4.222C343.429,249.537,343.2,249.273,342.973,249.008Z" transform="translate(-139.442 -77.471)"/><path class="cls-1" d="M302.506,406.457a14.127,14.127,0,0,1,8.3,2.643c1.106.816,2.223,1.833,1.754,3.341-.407,1.309-1.758,1.634-3.016,1.8a13.758,13.758,0,0,1-8.242-1.618c-1.712-.89-3.94-1.848-3.228-4.31C298.735,406.011,301.114,406.763,302.506,406.457Z" transform="translate(-139.442 -77.471)"/><path class="cls-6" d="M232.989,185.081,236,182.77s6.149-5.179,10.605-1.055,5.566,7.5,5.566,7.5a6.188,6.188,0,0,0-.667-3.184c-.823-1.5-.955-3.305-3.586-5.184s-7.614-3.17-7.614-3.17l-4.3,1.541s1.018.919-1.585,2.911A4.227,4.227,0,0,0,232.989,185.081Z" transform="translate(-139.442 -77.471)"/></svg>