<svg id="Layer_1" data-name="Layer 1" xmlns="http://www.w3.org/2000/svg" viewBox="0 0 100 100"><defs><style>.cls-1{fill:#fff;}.cls-2{fill:#1d1d1b;}.cls-3{fill:none;stroke:#1d1d1b;stroke-miterlimit:10;stroke-width:3px;}</style></defs><path class="cls-1" d="M20.866,1.5H79.134A19.366,19.366,0,0,1,98.5,20.866V79.135A19.365,19.365,0,0,1,79.135,98.5H20.865A19.365,19.365,0,0,1,1.5,79.135V20.866A19.366,19.366,0,0,1,20.866,1.5Z"/><path class="cls-2" d="M79.134,3A17.886,17.886,0,0,1,97,20.866V79.134A17.887,17.887,0,0,1,79.134,97H20.866A17.886,17.886,0,0,1,3,79.134V20.866A17.885,17.885,0,0,1,20.866,3H79.134m0-3H20.866A20.866,20.866,0,0,0,0,20.866V79.134A20.866,20.866,0,0,0,20.866,100H79.134A20.866,20.866,0,0,0,100,79.134V20.866A20.866,20.866,0,0,0,79.134,0Z"/><line class="cls-3" x1="50" y1="36.114" x2="50" y2="73.789"/><polygon class="cls-2" points="43.12 38.127 49.999 26.211 56.88 38.127 43.12 38.127"/></svg>