<svg id="Layer_1" data-name="Layer 1" xmlns="http://www.w3.org/2000/svg" viewBox="0 0 51.336 63.057"><defs><style>.cls-1{fill:#040403;}.cls-2{fill:#f8c700;stroke-width:0.5px;}.cls-2,.cls-4{stroke:#000;}.cls-3{fill:#006400;}.cls-4{fill:#f9c700;stroke-width:0.75px;}.cls-5{fill:#906000;}.cls-6{fill:#f8f8f8;}.cls-7{fill:#f5f5f5;}.cls-8{fill:#006300;}.cls-9{fill:#005000;}.cls-10{fill:#101602;}.cls-11{fill:#a56300;}.cls-12{fill:#fdfdfd;}</style></defs><path class="cls-1" d="M28.664,61.776a3.391,3.391,0,0,0,.189-1.856,15.248,15.248,0,0,1,.253-5.945c.17-.661.016-.979-.592-1.154,0-.131-.007-.261-.01-.391.863.322,1.207.021,1.055-.876l-.007-.5c.37.009.527-.247.659-.53A29.126,29.126,0,0,1,32.7,46.59a.525.525,0,0,0,.262-.5c5.733-.246,11,1.413,16.052,3.935a1.228,1.228,0,0,1,.776.822,1.908,1.908,0,0,0-1.7.43,18.728,18.728,0,0,0-3.918,3.992c-3.218,4.051-2.93,8.452-1.37,12.991a3.668,3.668,0,0,0,.566,1.024c.737.954,1.779.979,2.842.059.748-.649,1.553-1.22.263-2.256a2.28,2.28,0,0,1-.387-2.794,2.164,2.164,0,0,1,2.221-1.51c1.056.1,1.221-.409,1.25-1.286a76.961,76.961,0,0,1,.647-8.723,1.927,1.927,0,0,0-.433-1.941,1.033,1.033,0,0,1,.866.15A20.765,20.765,0,0,1,59,58.6c.16.261.325.52.162.842-.946-.8-.752.026-.766.54A11.354,11.354,0,0,1,50.43,70.889c-1.614.526-2.544,1.225-2.519,2.953a1.53,1.53,0,0,1-.038.258l-.479-.013c-.034-.4-.256-.455-.625-.421a16.527,16.527,0,0,1-11.133-2.79.873.873,0,0,0-.843-.174l-.25-.255c.013-.557-.439-.812-.766-1.133a18.239,18.239,0,0,1-2.6-3.18c-.432-.673-.639-1.511-1.36-1.987l-.261-.263C29.592,63.04,29.823,62.114,28.664,61.776Zm10.577-1.554a3.678,3.678,0,0,0-.886-3.06c-1.256-1.775-2.426-3.61-3.664-5.4-.333-.481-.686-1.3-1.293-1.1-.574.19-.42,1.051-.385,1.64.217,3.648.508,7.291.993,10.914a8.72,8.72,0,0,0,.981,3.092A3.851,3.851,0,0,0,37.518,68.4c.559.127,1.143.364,1.25-.559.07-.6.307-1.107-.74-1.139a2.167,2.167,0,0,1-1.771-2.5c.068-1.073.465-2.174,1.647-2.154C39.373,62.076,39.424,61.359,39.241,60.222Z" transform="translate(-24.378 -18.464)"/><path class="cls-2" d="M74.718,27.867c-.566.408-.78.77-.244,1.467.825,1.074.463,2.475.706,3.717a16.762,16.762,0,0,1-.023,3.5,25.249,25.249,0,0,0-.025,3.771l.009-.007c-.39-.2-.667-.133-.767.334,1.171.79,1.066,1.845.824,3.075-.27,1.373-.277,2.8-.614,4.171-.213,1.526-1.33,1.965-2.626,2.231-.442.091-.978.1-1.167.67l-.576.005a.581.581,0,0,0-.589.022c-.32-.032-.389-.258-.4-.526a36.6,36.6,0,0,0,.642-6.265,12.171,12.171,0,0,0-.468-4.569l-.1-.254a10.437,10.437,0,0,0-1.046-6.09c-1.2-2.63-1.085-4.623,1.479-6.217.264-.164.658-.42.159-.793a.453.453,0,0,1,.477-.472c.343.471.6.109.837-.108.636-.588,1.274-1.177,1.87-1.8.559-.589.959-.717,1.168.244.046.211.113.418.17.626A12.932,12.932,0,0,1,74.718,27.867Z" transform="translate(-24.378 -18.464)"/><path class="cls-3" d="M67.54,59.535l.023.062-.048.048c-.317.258-.256.612-.243.954l-.01.085a.7.7,0,0,0-.3.572c-.351,1.094-1.285,1.971-1.2,3.227l-.04-.065.05.057-.328-.063c-.919.241-.514-.5-.5-.776.075-1.543-.117-2.955-1.476-3.957-.5-.365-.419-.92-.4-1.44A30.48,30.48,0,0,0,63,52.144a19.365,19.365,0,0,0-9.665-13.819c-1.464-.878-2.992-1.65-4.49-2.47l.059-.237h3.717a1.974,1.974,0,0,0,1.262.229l.539.028.243.25a47.681,47.681,0,0,1,5.76,2.64,19.616,19.616,0,0,1,6.592,10.979.91.91,0,0,0,0,.25l.246.788.042.8.034.491.22,1.352a12.062,12.062,0,0,1-.007,4.676l-.03,1.106Z" transform="translate(-24.378 -18.464)"/><path class="cls-4" d="M70.364,25.64a.453.453,0,0,0-.477.472c-.829.768-1.7,1.5-2.474,2.317a1.211,1.211,0,0,1-1.693.232,21.816,21.816,0,0,0-7.555-2.368l-.617-.08c-.991-.032-1.981-.08-2.971-.091-.46,0-.876,0-.91-.61l.783-1.107c.41-.012.586-.318.757-.618a17.467,17.467,0,0,0,1.816-3.847l.04-.29,0-.574,0,.026,5.841.03c.3,0,.619.067.8-.271.679.065,1.36.115,2.037.2.732.091.329.919.759,1.215.425.717,2.188,1.326,2.409.8.455-1.079,1.142-.641,1.814-.489a5.625,5.625,0,0,1,2.905,1.64C72.759,23.578,71.375,24.431,70.364,25.64Z" transform="translate(-24.378 -18.464)"/><path class="cls-3" d="M51.23,81.213l-.926-.021c-.762-.077-.887-.593-.829-1.22.184-1.985.347-3.968.694-5.941a2.073,2.073,0,0,1,1.608-1.9,11.041,11.041,0,0,0,6.248-4.676c.506-.806.905-.494,1.429-.2l-.033.017.265.265L59.7,67.5c.241.888,1.484.593,1.736,1.469a.162.162,0,0,1-.061.113c-.146-.155-.278-.142-.4.031v0c-.3.18-.256.5-.314.78a4.3,4.3,0,0,0-.06,2.66c.345,1.8.227,3.485-1.354,4.7a18.449,18.449,0,0,1-6.323,3.185C52.342,80.607,51.578,80.485,51.23,81.213Z" transform="translate(-24.378 -18.464)"/><path d="M52.625,35.618H48.908l-.059.237c1.5.82,3.026,1.592,4.49,2.47A19.365,19.365,0,0,1,63,52.144a30.48,30.48,0,0,1,.066,6.095c-.017.52-.093,1.075.4,1.44,1.359,1,1.551,2.414,1.476,3.957-.013.279-.418,1.017.5.776,0,.185,0,.37,0,.555a9.867,9.867,0,0,1-2.884,2.879c-.011-.118-.021-.236-.031-.354.078-.1.151-.213.237-.31,2.132-2.4,2.17-4.873.111-7.294a2,2,0,0,1-.446-1.668,22.5,22.5,0,0,0-.033-6.128c-1.046-6.2-4.741-10.492-9.95-13.709-1.335-.824-2.927-1.15-4.113-2.229l.064-.849a9.773,9.773,0,0,1,4.194.015Z" transform="translate(-24.378 -18.464)"/><path class="cls-5" d="M28.664,61.776c1.159.338.928,1.264.891,2.108a6.582,6.582,0,0,0-2.108,2.346l0,0a.371.371,0,0,0-.27.525l-.007-.023c-.732.1-.7.568-.61,1.151a36.505,36.505,0,0,0,1.4,5.8c.279.842.176,1.3-.819,1.226-1.022-.267-.857-1.163-1-1.894a5.067,5.067,0,0,0-.547-2.265c-.839-2.183-1.012-4.167.815-6.054.7-.725,1.691-1.381,1.833-2.562Z" transform="translate(-24.378 -18.464)"/><path d="M53.667,25.512c.034.607.45.606.91.61.99.011,1.98.059,2.97.091-.052.741-.615.445-.986.455-1.3.038-2.609.03-3.913.057-.322.007-.8-.115-.831.38-.033.575.485.324.753.334a29.821,29.821,0,0,1,11.52,2.972,3.521,3.521,0,0,1,2.062,2.376,37.869,37.869,0,0,1,2.127,11.2l-.432,0a66.444,66.444,0,0,0-1.808-9.721,5.637,5.637,0,0,0-3.589-4.029,29.633,29.633,0,0,0-9.341-2.212c-.384-.019-1.234-.369-.872.681l-.454.081c-1.13-1.336-.912-2.053.81-2.652C52.994,26,53.19,25.517,53.667,25.512Z" transform="translate(-24.378 -18.464)"/><path d="M42.123,34.615l3.67.7,0,.34c-.471-.076-.944-.144-1.413-.229-5.25-.958-10.041-.224-13.945,3.78a22.4,22.4,0,0,0-3.585,5.563,20.388,20.388,0,0,1,11.39-.563l-.317.037-.259.224a28.372,28.372,0,0,0-6.1-.218c-2.108.143-4.257.332-5.825,2.067l-.125-.526c1.486-2.83,2.88-5.716,5.39-7.852A13.9,13.9,0,0,1,39.249,34.6,4.962,4.962,0,0,0,42.123,34.615Z" transform="translate(-24.378 -18.464)"/><path d="M59.454,67.254c-.524-.3-.923-.607-1.429.2a11.041,11.041,0,0,1-6.248,4.676,2.073,2.073,0,0,0-1.608,1.9c-.347,1.973-.51,3.956-.694,5.941-.058.627.067,1.143.829,1.22-.379.546-.894.256-1.368.225l-.041-.558a50.219,50.219,0,0,1,.793-7.084,2.392,2.392,0,0,1,1.748-2.086c3.214-1.212,5.983-3.02,7.194-6.5l.457.013Z" transform="translate(-24.378 -18.464)"/><path d="M62.537,67.492l.032.354-1.132,1.126c-.251-.876-1.494-.581-1.735-1.469.418-.03.923.089.552-.673a5.776,5.776,0,0,1-.225-4.811,3.877,3.877,0,0,0-.494-3.9c-.327-.512-.663-1.02-.959-1.55-.981-1.756-2.53-3.072-3.631-4.735.53-.081.762.346,1.067.635a26.036,26.036,0,0,1,4.473,6.208,3.116,3.116,0,0,1,.219,2.855,6.311,6.311,0,0,0,.143,5.3C61.265,67.67,61.705,67.956,62.537,67.492Z" transform="translate(-24.378 -18.464)"/><path d="M51.23,81.213c.348-.728,1.112-.606,1.7-.771a18.449,18.449,0,0,0,6.323-3.185c1.581-1.218,1.7-2.906,1.354-4.7a4.3,4.3,0,0,1,.061-2.66l.346.022a9.826,9.826,0,0,0,.165,2.983,4.556,4.556,0,0,1-2.089,5.082C56.679,79.6,54.2,80.989,51.23,81.213Z" transform="translate(-24.378 -18.464)"/><path d="M28.244,62.128c-.142,1.181-1.131,1.837-1.833,2.562-1.827,1.887-1.654,3.871-.815,6.054a5.067,5.067,0,0,1,.547,2.265c-.5-.076-.535-.507-.651-.865-.307-.947-.633-1.89-.887-2.852a3.808,3.808,0,0,1,.763-3.96C26.36,64.3,26.939,62.889,28.244,62.128Z" transform="translate(-24.378 -18.464)"/><path d="M25.617,45.791c.041.175.083.351.124.524-.092.287-.16.586-.276.865C24.6,49.24,25,50.452,26.9,51.558c.525.3,1.067.582,1.6.871l.01.392c-.207-.058-.42-.1-.619-.177C24.28,51.251,23.559,49.078,25.617,45.791Z" transform="translate(-24.378 -18.464)"/><path d="M27.145,74.9c1,.072,1.1-.384.819-1.226a36.505,36.505,0,0,1-1.4-5.8c-.092-.583-.122-1.046.61-1.151a21.329,21.329,0,0,0,1.37,7.1c.107.35.194.8.747.73v.314C28.582,75.362,27.872,75.789,27.145,74.9Z" transform="translate(-24.378 -18.464)"/><path d="M51.783,28.792l.453-.081a21.214,21.214,0,0,1,3.743,7.14,2.1,2.1,0,0,1-1.31.274l-.243-.25c.952.077.967-.342.664-1.095A37.616,37.616,0,0,0,51.783,28.792Z" transform="translate(-24.378 -18.464)"/><path d="M48.9,80.859l.041.558c-2.211-.331-2.231-.332-2.05-2.444.139-1.631.336-3.258.508-4.886l.479.013c-.161,1.677-.279,3.359-.5,5.029C47.216,80.353,47.646,80.933,48.9,80.859Z" transform="translate(-24.378 -18.464)"/><path d="M73.625,22.23h.463a6.3,6.3,0,0,1,.755,2.36l-.434.006c-.057-.208-.124-.415-.17-.626-.209-.961-.609-.833-1.168-.244-.6.628-1.234,1.217-1.87,1.8-.236.217-.494.579-.837.108C71.375,24.431,72.759,23.578,73.625,22.23Z" transform="translate(-24.378 -18.464)"/><path d="M29.29,74.874v-.313a21.112,21.112,0,0,1,5.253-4.114l.25.255Z" transform="translate(-24.378 -18.464)"/><path d="M67.555,58.1a12.068,12.068,0,0,0,.007-4.677c.129-.178.26-.356.39-.534a17.912,17.912,0,0,1-.024,5.744Z" transform="translate(-24.378 -18.464)"/><path d="M74.409,24.6l.434-.006c.27,1.1.725,2.192.148,3.328a.127.127,0,0,1-.111.052.571.571,0,0,1-.167-.1A12.721,12.721,0,0,0,74.409,24.6Z" transform="translate(-24.378 -18.464)"/><path d="M70.791,50.8c.189-.567.725-.579,1.167-.67,1.3-.266,2.413-.7,2.626-2.231.093,1.91.087,1.886-1.736,2.393C72.166,50.48,71.558,50.95,70.791,50.8Z" transform="translate(-24.378 -18.464)"/><path d="M67.342,52.07c-.011-.164-.023-.327-.034-.491.261-.2.216-.5.261-.769l.666.181L68.194,51l.143-.224.487-.506.4.031c.012.268.081.494.4.526l.383.27a1.6,1.6,0,0,1-1.427.3c-.753-.24-.744.219-.763.707Z" transform="translate(-24.378 -18.464)"/><path d="M65.767,64.483c-.086-1.256.848-2.133,1.2-3.227l.319.005A6.45,6.45,0,0,1,65.767,64.483Z" transform="translate(-24.378 -18.464)"/><path d="M45.8,35.656l0-.34a8.684,8.684,0,0,0,2.615-.011q-.033.425-.064.849A6.023,6.023,0,0,1,45.8,35.656Z" transform="translate(-24.378 -18.464)"/><path d="M75.132,40.325a25.249,25.249,0,0,1,.025-3.771c.69.283.133.821.239,1.229.136.519-.1,1.071.215,1.62C75.767,39.672,75.839,40.3,75.132,40.325Z" transform="translate(-24.378 -18.464)"/><path d="M42.123,34.615a4.962,4.962,0,0,1-2.874-.018A11.811,11.811,0,0,1,42.123,34.615Z" transform="translate(-24.378 -18.464)"/><path d="M67.342,52.07l.477.036.133.781c-.13.178-.261.356-.39.534Q67.453,52.746,67.342,52.07Z" transform="translate(-24.378 -18.464)"/><path d="M52.625,35.618l-.023-.3a1.267,1.267,0,0,1,1.285.527A1.974,1.974,0,0,1,52.625,35.618Z" transform="translate(-24.378 -18.464)"/><path d="M67.272,60.6c-.013-.342-.074-.7.243-.954C67.576,60,67.839,60.4,67.272,60.6Z" transform="translate(-24.378 -18.464)"/><path d="M61.012,69.916l-.346-.022c.057-.279.009-.6.313-.78l.258.267Z" transform="translate(-24.378 -18.464)"/><path d="M67.555,58.1l.373.533-.11.538-.293.035Z" transform="translate(-24.378 -18.464)"/><path d="M70.009,51.1l-.383-.27a.581.581,0,0,1,.589-.022Z" transform="translate(-24.378 -18.464)"/><path d="M65.453,64.967c0-.185,0-.37,0-.555l.328.063A.551.551,0,0,1,65.453,64.967Z" transform="translate(-24.378 -18.464)"/><path d="M67.286,61.261l-.319-.005a.691.691,0,0,1,.3-.572Z" transform="translate(-24.378 -18.464)"/><path d="M67.525,59.2l.293-.035c.033.217-.118.294-.278.366Z" transform="translate(-24.378 -18.464)"/><path d="M61.237,69.381l-.258-.267v0l.382.028Z" transform="translate(-24.378 -18.464)"/><path d="M61.4,69.182l-.468-.035c.147-.212.308-.227.486-.037Z" transform="translate(-24.378 -18.464)"/><path class="cls-6" d="M49.77,50.832a1.927,1.927,0,0,1,.433,1.941,76.961,76.961,0,0,0-.647,8.723c-.029.877-.194,1.387-1.25,1.286a2.164,2.164,0,0,0-2.221,1.51,2.28,2.28,0,0,0,.387,2.794c1.29,1.036.485,1.607-.263,2.256-1.063.92-2.105.895-2.842-.059a3.668,3.668,0,0,1-.566-1.024c-1.56-4.539-1.848-8.94,1.37-12.991a18.728,18.728,0,0,1,3.918-3.992,1.908,1.908,0,0,1,1.7-.43Z" transform="translate(-24.378 -18.464)"/><path class="cls-5" d="M49.77,50.832l.018.014a1.228,1.228,0,0,0-.776-.822C43.959,47.5,38.693,45.843,32.96,46.089a6.943,6.943,0,0,0-4.905,1.424,1.5,1.5,0,0,0-.343,2.5l0-.007.267.27-.006,0,.268.267h0a2.24,2.24,0,0,0,1.327,1.021c.152.9-.192,1.2-1.055.876-.534-.29-1.076-.567-1.6-.872C25,50.452,24.6,49.24,25.465,47.18c.116-.279.184-.578.276-.865,1.569-1.733,3.718-1.922,5.826-2.065a28.308,28.308,0,0,1,6.1.219l.27.026,1.568.237.263.033c.424.088.848.179,1.272.266a29.241,29.241,0,0,1,11.515,4.91c.728.528,1.209,1.376,2.135,1.638v0a.253.253,0,0,0,.266.265l-.009,0c1.1,1.663,2.65,2.979,3.631,4.735.3.53.632,1.038.959,1.55a3.877,3.877,0,0,1,.494,3.9,5.776,5.776,0,0,0,.225,4.811c.371.762-.134.643-.552.673l-.016.033c.028-.2-.06-.293-.265-.265l.033-.017-.366-2.05a20.614,20.614,0,0,1,.56-4.35,1.421,1.421,0,0,0-.2-1.468l-.307.037.014.015c.163-.322,0-.581-.162-.842a20.765,20.765,0,0,0-8.359-7.614A1.033,1.033,0,0,0,49.77,50.832Z" transform="translate(-24.378 -18.464)"/><path class="cls-7" d="M39.241,60.222c.183,1.137.132,1.854-1.337,1.829-1.182-.02-1.579,1.081-1.647,2.154a2.167,2.167,0,0,0,1.771,2.5c1.047.032.81.536.74,1.139-.107.923-.691.686-1.25.559a3.851,3.851,0,0,1-2.531-2.093,8.72,8.72,0,0,1-.981-3.092c-.485-3.623-.776-7.266-.993-10.914-.035-.589-.189-1.45.385-1.64.607-.2.96.619,1.293,1.1,1.238,1.787,2.408,3.622,3.664,5.4A3.678,3.678,0,0,1,39.241,60.222Z" transform="translate(-24.378 -18.464)"/><path class="cls-8" d="M34.543,70.447a21.112,21.112,0,0,0-5.253,4.114c-.553.07-.64-.381-.747-.731a21.329,21.329,0,0,1-1.37-7.1l.007.023a.411.411,0,0,0,.27-.525l0,0c1.113-.327,1.638-1.323,2.369-2.083.721.476.928,1.314,1.36,1.987a18.239,18.239,0,0,0,2.6,3.18C34.1,69.635,34.556,69.89,34.543,70.447Z" transform="translate(-24.378 -18.464)"/><path class="cls-5" d="M48.9,80.859c-1.249.074-1.679-.506-1.519-1.73.218-1.67.336-3.352.5-5.029a1.53,1.53,0,0,0,.038-.258c-.025-1.728.905-2.427,2.519-2.953a11.354,11.354,0,0,0,7.961-10.911c.014-.514-.18-1.342.766-.54l-.014-.015.006.266c.034,1.854-.8,3.626-.519,5.5-1.211,3.478-3.98,5.286-7.194,6.5a2.392,2.392,0,0,0-1.748,2.086A50.219,50.219,0,0,0,48.9,80.859Z" transform="translate(-24.378 -18.464)"/><path class="cls-9" d="M32.7,46.59a29.126,29.126,0,0,0-2.487,3.937c-.132.283-.289.539-.659.53-.41-.249-.753-.669-1.32-.524h0l-.268-.267.006,0L27.708,50l0,.007c-.238-1.379.465-2.132,1.646-2.687A6.442,6.442,0,0,1,32.7,46.59Z" transform="translate(-24.378 -18.464)"/><path d="M32.7,46.59a6.442,6.442,0,0,0-3.34.732c-1.181.555-1.884,1.308-1.646,2.687a1.5,1.5,0,0,1,.343-2.5,6.943,6.943,0,0,1,4.905-1.424A.525.525,0,0,1,32.7,46.59Z" transform="translate(-24.378 -18.464)"/><path d="M29.816,64.147c-.731.76-1.256,1.756-2.369,2.083a6.582,6.582,0,0,1,2.108-2.346Z" transform="translate(-24.378 -18.464)"/><path d="M28.232,50.533c.567-.145.91.275,1.32.524l.007.5A2.24,2.24,0,0,1,28.232,50.533Z" transform="translate(-24.378 -18.464)"/><path class="cls-5" d="M68.824,50.269l-.487.506-.081-1.569q.011-2.609.023-5.217a37.869,37.869,0,0,0-2.127-11.2,3.521,3.521,0,0,0-2.062-2.376,29.821,29.821,0,0,0-11.52-2.972c-.268-.01-.786.241-.753-.334.028-.5.509-.373.831-.38,1.3-.027,2.609-.019,3.913-.057.371-.01.934.286.986-.455l.618.08c-.064.676.438.6.859.666a27.844,27.844,0,0,1,5.951,1.834,3.612,3.612,0,0,1,1.953,2.135,27.759,27.759,0,0,1,1.784,6.162c.1.687-.207,1.591.583,2.122l.1.254c-.553.379-.354.965-.277,1.422a17.218,17.218,0,0,1,.226,2.7C69.375,45.832,68.893,48.034,68.824,50.269Z" transform="translate(-24.378 -18.464)"/><path d="M69.3,39.212c-.79-.531-.487-1.435-.583-2.122a27.759,27.759,0,0,0-1.784-6.162,3.612,3.612,0,0,0-1.953-2.135,27.844,27.844,0,0,0-5.951-1.834c-.421-.071-.923.01-.859-.666a21.816,21.816,0,0,1,7.555,2.368,1.211,1.211,0,0,0,1.693-.232c.777-.817,1.645-1.549,2.474-2.317.5.373.105.629-.159.793-2.564,1.594-2.679,3.587-1.479,6.217A10.437,10.437,0,0,1,69.3,39.212Z" transform="translate(-24.378 -18.464)"/><path d="M68.824,50.269c.069-2.235.551-4.437.524-6.681a17.218,17.218,0,0,0-.226-2.7c-.077-.457-.276-1.043.277-1.422a12.171,12.171,0,0,1,.468,4.569,36.6,36.6,0,0,1-.642,6.265Z" transform="translate(-24.378 -18.464)"/><path d="M67.021,49.744A19.62,19.62,0,0,0,60.43,38.765l.19-.189a3.2,3.2,0,0,1,.73.468c.63.707.951.354,1.216-.3h.5c-.019.651-.822,1.172-.009,1.976a16.629,16.629,0,0,1,4.4,8.953Z" transform="translate(-24.378 -18.464)"/><path d="M54.669,36.125a2.1,2.1,0,0,0,1.311-.274c1.046.968,2.5,1.14,3.669,1.87.3.189.511-.272.813-.3q.078.578.158,1.157l-.19.189A47.765,47.765,0,0,0,54.669,36.125Z" transform="translate(-24.378 -18.464)"/><path d="M68.256,49.206l.081,1.569L68.193,51l.042-.008-.667-.181-.3-.028-.246-.788c.28-.019.6.077.771-.26l.076-.528Z" transform="translate(-24.378 -18.464)"/><path d="M67.266,50.782l.3.028c-.044.271,0,.572-.26.769Z" transform="translate(-24.378 -18.464)"/><path d="M67.791,49.734c-.173.337-.491.241-.771.26a.91.91,0,0,1,0-.25l.433-.076Z" transform="translate(-24.378 -18.464)"/><path class="cls-5" d="M57.023,19.94a1.385,1.385,0,0,1-.063-.224c0-.017.067-.044.1-.066C57.05,19.747,57.036,19.844,57.023,19.94Z" transform="translate(-24.378 -18.464)"/><path class="cls-10" d="M59.421,67.271c.2-.028.293.061.265.265Z" transform="translate(-24.378 -18.464)"/><path class="cls-3" d="M45.8,35.656a6.023,6.023,0,0,0,2.549.5c1.186,1.079,2.778,1.4,4.113,2.229,5.209,3.217,8.9,7.507,9.95,13.709a22.5,22.5,0,0,1,.033,6.128,2,2,0,0,0,.446,1.668c2.059,2.421,2.021,4.893-.111,7.294-.086.1-.159.207-.237.31-.833.464-1.273.178-1.691-.66a6.311,6.311,0,0,1-.143-5.3,3.116,3.116,0,0,0-.219-2.855,26.036,26.036,0,0,0-4.473-6.208c-.3-.289-.537-.716-1.067-.635l.009,0a.259.259,0,0,0-.266-.265v0c.068-.585-.4-.855-.745-1.144A25.206,25.206,0,0,0,39.8,44.46c-.47-.391-1.037-.181-1.559-.253a20.388,20.388,0,0,0-11.39.563,22.4,22.4,0,0,1,3.585-5.563c3.9-4,8.695-4.738,13.945-3.78C44.851,35.512,45.324,35.58,45.8,35.656Z" transform="translate(-24.378 -18.464)"/><path d="M27.45,66.228a.411.411,0,0,1-.27.525A.371.371,0,0,1,27.45,66.228Z" transform="translate(-24.378 -18.464)"/><path class="cls-11" d="M67.791,49.734l-.337-.066a16.621,16.621,0,0,0-4.4-8.953c-.813-.8-.01-1.325.009-1.976a1.4,1.4,0,0,0-1.3-1.552c-.449.012-.952-.263-1.311.242l.012-.01c-.3.03-.509.491-.813.3-1.171-.73-2.623-.9-3.669-1.87a21.234,21.234,0,0,0-3.744-7.14c-.361-1.05.489-.7.873-.681a29.633,29.633,0,0,1,9.341,2.212,5.637,5.637,0,0,1,3.589,4.029,66.309,66.309,0,0,1,1.807,9.721l.021,5.214Z" transform="translate(-24.378 -18.464)"/><path d="M67.867,49.206l-.021-5.214.433,0q-.012,2.609-.023,5.217Z" transform="translate(-24.378 -18.464)"/><path d="M38.242,44.207c.522.072,1.089-.138,1.559.253l-.042.05-.255.222L37.936,44.5c0-.084-.006-.168-.011-.251Z" transform="translate(-24.378 -18.464)"/><path d="M37.925,44.244c.005.083.008.167.011.251l-.27-.026C37.752,44.393,37.839,44.319,37.925,44.244Z" transform="translate(-24.378 -18.464)"/><path d="M58.63,65.191c-.28-1.876.553-3.648.519-5.5l.3-.3a1.421,1.421,0,0,1,.2,1.468,20.614,20.614,0,0,0-.56,4.35Z" transform="translate(-24.378 -18.464)"/><path class="cls-12" d="M68.235,50.991,68.193,51Z" transform="translate(-24.378 -18.464)"/><path d="M39.8,44.46a25.206,25.206,0,0,1,14.143,5.975c.347.289.813.559.745,1.144-.926-.262-1.407-1.11-2.135-1.638a29.241,29.241,0,0,0-11.515-4.91c-.424-.087-.848-.178-1.272-.266,0-.085-.005-.17-.008-.255Z" transform="translate(-24.378 -18.464)"/><path d="M54.688,51.575a.259.259,0,0,1,.266.265A.253.253,0,0,1,54.688,51.575Z" transform="translate(-24.378 -18.464)"/><path class="cls-10" d="M27.969,50.267l.268.267Z" transform="translate(-24.378 -18.464)"/><path class="cls-10" d="M27.708,50l.267.27Z" transform="translate(-24.378 -18.464)"/><path class="cls-1" d="M59.45,59.386l-.3.3-.006-.266Z" transform="translate(-24.378 -18.464)"/><path d="M39.759,44.51c0,.085.006.17.008.255l-.263-.033Z" transform="translate(-24.378 -18.464)"/><path class="cls-11" d="M60.62,38.576q-.079-.579-.158-1.157l-.012.01,1.3.15c.33.346.794.6.817,1.16-.265.659-.586,1.012-1.216.3A3.2,3.2,0,0,0,60.62,38.576Z" transform="translate(-24.378 -18.464)"/><path d="M62.566,38.739c-.023-.562-.487-.814-.817-1.161l.012-.391a1.4,1.4,0,0,1,1.3,1.552Z" transform="translate(-24.378 -18.464)"/><path d="M61.761,37.187l-.012.391-1.3-.149C60.809,36.924,61.312,37.2,61.761,37.187Z" transform="translate(-24.378 -18.464)"/></svg>